<?xml version="1.0" standalone="no"?>
<!DOCTYPE svg PUBLIC "-//W3C//DTD SVG 20010904//EN"
 "http://www.w3.org/TR/2001/REC-SVG-20010904/DTD/svg10.dtd">
<svg version="1.0" xmlns="http://www.w3.org/2000/svg"
 width="1024.000000pt" height="1024.000000pt" viewBox="0 0 1024.000000 1024.000000"
 preserveAspectRatio="xMidYMid meet">
<metadata>
Created by potrace 1.11, written by Peter Selinger 2001-2013
</metadata>
<g transform="translate(0.000000,1024.000000) scale(0.100000,-0.100000)"
fill="#000000" stroke="none">
<path d="M187 7503 c-11 -10 -8 -4746 3 -4763 8 -13 11 -13 22 -1 8 9 9 11 1
7 -6 -3 -14 -3 -16 1 -3 5 67 8 154 8 88 0 155 -1 150 -3 -20 -7 -11 -20 9
-15 11 3 18 8 16 12 -2 3 12 6 32 7 21 1 31 -1 24 -3 -20 -8 -14 -22 8 -16 11
3 18 8 16 12 -2 3 83 6 191 6 107 0 189 -1 184 -3 -20 -7 -11 -20 9 -15 11 3
18 8 16 12 -2 3 8 6 24 6 20 1 26 -3 22 -14 -3 -9 -1 -12 6 -7 7 4 12 14 12
23 0 8 6 13 13 10 9 -3 12 471 12 2357 0 2349 0 2362 -20 2364 -11 0 -21 6
-23 12 -5 14 -32 13 -32 -2 0 -8 -3 -9 -8 -3 -4 6 -20 11 -37 13 -23 2 -27 1
-15 -8 12 -8 11 -9 -7 -7 -12 2 -26 6 -29 10 -4 4 -14 7 -22 7 -12 0 -12 -3
-1 -17 13 -16 12 -17 -4 -4 -10 8 -38 16 -64 18 -42 3 -44 2 -32 -14 13 -16
12 -17 -3 -4 -10 7 -18 10 -18 5 0 -4 -5 -3 -12 4 -7 7 -18 12 -26 12 -12 0
-12 -3 -1 -17 13 -17 12 -17 -6 -2 -19 16 -35 17 -83 5 -13 -3 -20 -1 -17 5 4
5 1 9 -4 9 -6 0 -11 -6 -11 -12 0 -8 -3 -9 -8 -3 -11 16 -64 18 -73 3 -5 -7
-9 -8 -9 -2 0 5 -19 11 -42 13 -38 2 -40 1 -27 -16 13 -17 13 -17 -5 -3 -10 8
-30 16 -44 18 -23 3 -24 2 -11 -15 13 -16 12 -17 -3 -4 -10 7 -18 10 -18 5 0
-4 -5 -3 -12 4 -7 7 -18 12 -26 12 -12 0 -12 -3 -1 -17 13 -17 13 -17 -5 -3
-10 8 -30 16 -44 18 -23 3 -24 2 -11 -15 13 -16 12 -17 -3 -4 -10 7 -18 10
-18 5 0 -4 -5 -3 -12 4 -7 7 -18 12 -26 12 -12 0 -12 -3 -1 -17 13 -17 13 -17
-7 0 -11 9 -24 14 -27 10z m898 -128 c0 -52 -2 -92 -5 -89 -2 3 -5 48 -5 99 0
52 2 92 5 89 2 -3 5 -48 5 -99z m1 -169 c0 -25 -3 -43 -5 -40 -8 7 -9 84 -2
84 4 0 7 -20 7 -44z m-1 -160 c0 -47 -2 -82 -5 -80 -7 7 -7 164 0 164 3 0 5
-38 5 -84z m1 -160 c0 -25 -3 -43 -5 -40 -8 7 -9 84 -2 84 4 0 7 -20 7 -44z
m-1 -160 c0 -47 -2 -82 -5 -80 -7 7 -7 164 0 164 3 0 5 -38 5 -84z m1 -160 c0
-25 -3 -43 -5 -40 -8 7 -9 84 -2 84 4 0 7 -20 7 -44z m-1 -240 c0 -91 -2 -162
-5 -160 -7 7 -7 324 0 324 3 0 5 -74 5 -164z m1 -240 c0 -25 -3 -43 -5 -40 -8
7 -9 84 -2 84 4 0 7 -20 7 -44z m-1 -200 c0 -69 -2 -122 -5 -120 -7 7 -7 244
0 244 3 0 5 -56 5 -124z m1 -200 c0 -25 -3 -43 -5 -40 -8 7 -9 84 -2 84 4 0 7
-20 7 -44z m0 -160 c0 -25 -3 -43 -5 -40 -8 7 -9 84 -2 84 4 0 7 -20 7 -44z
m-1 -200 c0 -69 -2 -122 -5 -120 -7 7 -7 244 0 244 3 0 5 -56 5 -124z m1 -200
c0 -25 -3 -43 -5 -40 -8 7 -9 84 -2 84 4 0 7 -20 7 -44z m-1 -200 c0 -69 -2
-122 -5 -120 -7 7 -7 244 0 244 3 0 5 -56 5 -124z m1 -200 c0 -25 -3 -43 -5
-40 -8 7 -9 84 -2 84 4 0 7 -20 7 -44z m0 -160 c0 -25 -3 -43 -5 -40 -8 7 -9
84 -2 84 4 0 7 -20 7 -44z m-1 -200 c0 -69 -2 -122 -5 -120 -7 7 -7 244 0 244
3 0 5 -56 5 -124z m1 -200 c0 -25 -3 -43 -5 -40 -8 7 -9 84 -2 84 4 0 7 -20 7
-44z m-1 -240 c0 -91 -2 -162 -5 -160 -7 7 -7 324 0 324 3 0 5 -74 5 -164z m1
-240 c0 -25 -3 -43 -5 -40 -8 7 -9 84 -2 84 4 0 7 -20 7 -44z m-1 -160 c0 -47
-2 -82 -5 -80 -7 7 -7 164 0 164 3 0 5 -38 5 -84z m1 -160 c0 -25 -3 -43 -5
-40 -8 7 -9 84 -2 84 4 0 7 -20 7 -44z m-1 -160 c0 -47 -2 -82 -5 -80 -7 7 -7
164 0 164 3 0 5 -38 5 -84z m1 -160 c0 -25 -3 -43 -5 -40 -8 7 -9 84 -2 84 4
0 7 -20 7 -44z m-1 -160 c0 -47 -2 -82 -5 -80 -7 7 -7 164 0 164 3 0 5 -38 5
-84z"/>
<path d="M1068 7503 c7 -3 16 -2 19 1 4 3 -2 6 -13 5 -11 0 -14 -3 -6 -6z"/>
<path d="M1766 7502 c-4 -3 -6 -1077 -6 -2386 l0 -2381 25 -1 c14 -1 25 2 25
8 0 5 -4 7 -8 4 -4 -2 -13 -1 -19 2 -7 4 29 8 78 7 50 0 85 -1 80 -3 -20 -7
-11 -20 9 -15 11 3 18 8 16 12 -2 3 12 6 32 7 21 1 31 -1 25 -3 -21 -8 -15
-22 7 -16 11 3 18 8 16 12 -2 3 84 6 191 6 107 0 190 -1 184 -3 -20 -7 -11
-20 9 -15 11 3 18 8 16 12 -2 3 12 6 32 7 21 1 31 -1 25 -3 -21 -8 -15 -22 7
-16 11 3 18 8 16 12 -2 3 12 6 32 7 21 1 31 -1 25 -3 -21 -8 -15 -22 7 -16 11
3 18 8 16 12 -2 3 12 6 32 7 21 1 31 -1 25 -3 -21 -8 -15 -22 7 -16 11 3 18 8
16 12 -2 3 84 6 191 6 107 0 190 -1 184 -3 -6 -2 -11 -7 -11 -11 0 -10 38 -7
47 4 5 4 2 5 -4 1 -7 -4 -13 -2 -13 3 0 6 11 11 25 11 16 0 25 6 25 15 0 8 5
15 11 15 14 0 39 25 39 39 0 6 7 11 15 11 8 0 15 5 15 11 0 14 20 33 43 42 10
4 15 11 12 17 -3 5 3 10 15 10 12 0 18 5 15 10 -3 6 -1 10 4 10 6 0 11 8 11
18 1 15 2 15 16 -3 11 -14 15 -15 14 -5 -4 31 1 39 40 63 22 13 37 27 33 30
-6 7 12 11 30 8 5 -1 6 3 2 9 -3 5 1 13 10 16 13 6 14 8 3 15 -9 6 -5 9 14 9
20 0 26 4 22 15 -4 9 0 15 10 15 9 0 16 7 16 15 0 8 5 15 11 15 7 0 26 16 44
34 18 19 36 32 39 28 4 -3 9 4 13 16 3 13 13 22 25 22 10 0 16 5 13 10 -8 13
19 40 40 40 12 0 15 5 11 16 -6 15 -4 15 11 3 11 -9 14 -10 9 -1 -4 6 -3 12 3
12 6 0 8 7 5 15 -4 10 0 15 11 15 10 0 13 4 9 13 -5 7 -1 7 12 -3 10 -8 16
-11 12 -6 -10 12 10 46 26 46 8 0 21 11 30 25 9 14 23 25 31 25 18 0 20 16 3
23 -7 3 -1 6 14 6 17 1 27 6 25 14 -1 6 6 11 16 9 12 -2 17 4 17 18 0 12 5 18
10 15 6 -3 10 1 10 9 0 9 7 16 15 16 8 0 15 5 15 10 0 6 7 10 15 10 8 0 15 7
15 15 0 8 5 15 10 15 6 0 10 7 10 15 0 8 5 15 11 15 13 0 39 25 39 39 0 6 7 8
15 5 10 -4 15 0 15 15 0 12 6 21 15 21 8 0 15 5 15 11 0 5 5 7 10 4 6 -3 10
-1 10 5 0 6 4 9 9 5 5 -3 13 0 17 6 4 7 3 9 -4 5 -6 -3 -14 -2 -17 4 -4 6 -3
10 2 9 26 -4 53 3 50 14 -1 6 4 11 11 9 7 -1 12 5 10 15 -2 12 3 18 15 17 13
-1 15 2 8 10 -7 8 -4 12 10 13 21 2 49 26 49 42 0 6 7 11 15 11 8 0 15 5 15
11 0 11 24 39 34 39 8 0 46 38 46 46 0 14 34 36 56 37 23 0 23 0 7 14 -17 14
-17 14 0 9 11 -3 17 0 17 10 0 8 5 12 10 9 6 -3 10 -1 10 5 0 7 7 10 18 6 14
-5 14 -4 -2 9 -19 15 -19 15 5 16 13 1 28 1 32 0 5 -1 6 3 2 9 -3 6 -11 7 -17
4 -7 -4 -8 -2 -4 5 4 6 12 9 17 6 5 -4 9 -1 9 5 0 6 5 8 10 5 9 -6 15 8 11 29
-1 5 6 3 15 -5 16 -12 17 -12 11 4 -4 11 -2 17 8 17 9 0 12 6 9 15 -4 10 0 15
15 15 12 0 21 5 21 10 0 6 7 10 15 10 8 0 15 7 15 15 0 8 5 15 10 15 6 0 10 7
10 15 0 8 7 15 15 15 8 0 15 5 15 11 0 6 7 9 15 5 10 -4 15 1 15 15 0 11 5 17
10 14 6 -3 10 1 10 9 0 9 9 16 20 16 13 0 18 5 14 15 -4 9 0 15 10 15 9 0 16
8 16 18 0 14 2 15 10 2 9 -13 10 -13 11 0 1 8 1 19 0 24 -1 5 4 4 11 -2 11 -9
14 -6 15 11 1 12 7 23 13 25 7 3 10 205 10 634 0 546 -2 631 -15 644 -12 12
-15 12 -15 2 0 -7 -6 -4 -12 7 -6 11 -18 25 -26 31 -8 6 -12 16 -8 22 5 8 2
10 -8 6 -9 -3 -16 -1 -16 5 0 6 -8 8 -17 4 -10 -3 -15 -3 -11 2 12 12 -11 45
-31 45 -11 0 -22 7 -25 16 -3 8 -10 12 -16 9 -5 -3 -10 1 -10 9 0 9 -5 16 -10
16 -6 0 -9 3 -9 8 3 19 -2 33 -11 27 -12 -8 -50 16 -50 32 0 7 -4 13 -10 13
-5 0 -10 6 -10 14 0 7 -9 16 -21 19 -11 3 -23 15 -26 27 -3 12 -11 19 -18 16
-7 -2 -15 5 -18 16 -3 11 -10 17 -16 13 -6 -3 -11 1 -11 9 0 9 -4 17 -10 17
-5 1 -14 2 -19 3 -5 0 -13 5 -18 10 -4 5 -3 6 4 2 6 -3 15 -2 18 4 4 6 3 10
-2 9 -28 -5 -53 3 -53 17 0 9 -5 12 -12 8 -8 -5 -9 -2 -5 9 4 11 1 17 -9 17
-8 0 -17 7 -20 15 -4 8 -10 15 -16 15 -14 0 -38 27 -30 34 3 4 -4 9 -16 13
-12 3 -22 10 -22 15 0 13 -26 38 -39 38 -6 0 -11 7 -11 15 0 8 -7 15 -15 15
-8 0 -15 5 -15 11 0 16 -28 40 -49 42 -16 1 -18 4 -8 16 9 12 9 13 -1 7 -7 -4
-15 -1 -18 8 -3 9 -12 16 -20 16 -9 0 -11 6 -7 18 6 15 5 16 -12 2 -11 -9 -16
-10 -11 -2 7 11 -4 16 -29 13 -5 -1 -1 6 10 15 14 10 15 15 5 12 -18 -3 -73
36 -63 46 3 3 -2 6 -12 6 -13 0 -15 3 -7 13 8 10 6 13 -11 14 -12 1 -23 7 -25
13 -2 5 -10 10 -18 10 -8 0 -14 7 -14 15 0 8 -4 15 -10 15 -5 0 -10 7 -10 15
0 8 -7 15 -15 15 -8 0 -15 5 -15 10 0 6 -7 10 -15 10 -8 0 -15 5 -15 11 0 14
-25 39 -39 39 -6 0 -11 7 -11 15 0 13 -19 20 -44 16 -5 -1 -4 5 4 13 10 13 10
16 -4 16 -10 0 -14 5 -11 10 3 6 -3 10 -14 10 -15 0 -19 4 -14 17 4 9 2 14 -3
11 -5 -4 -18 0 -29 8 -10 8 -15 14 -9 14 5 0 -6 8 -23 16 -18 9 -33 21 -33 26
0 5 5 6 12 2 7 -4 8 -3 4 4 -4 7 -16 12 -27 12 -10 0 -19 5 -19 11 0 5 5 7 12
3 7 -4 8 -3 4 4 -4 7 -14 12 -22 12 -18 0 -37 18 -47 43 -4 10 -11 15 -17 12
-5 -3 -10 -1 -10 4 0 6 -6 11 -14 11 -8 0 -20 14 -28 30 -7 17 -18 28 -25 25
-7 -2 -13 2 -13 10 0 8 -4 15 -10 15 -5 0 -10 7 -10 16 0 10 -6 14 -15 10 -9
-3 -15 0 -15 10 0 9 -9 18 -20 21 -11 3 -18 9 -15 13 3 4 -2 11 -11 14 -8 3
-12 11 -8 17 4 7 3 9 -3 6 -6 -4 -21 2 -33 13 -13 11 -27 20 -32 20 -4 0 -8 7
-8 16 0 8 -5 12 -10 9 -6 -3 -13 1 -16 9 -3 9 -10 16 -16 16 -13 0 -38 26 -38
39 0 6 -7 11 -15 11 -8 0 -15 5 -15 11 0 14 -25 39 -39 39 -6 0 -11 7 -11 16
0 8 -5 12 -11 9 -6 -4 -13 2 -16 14 -3 12 -10 21 -15 21 -5 0 -7 -4 -3 -9 3
-5 1 -13 -5 -16 -6 -4 -10 -3 -9 2 3 20 -2 27 -11 13 -6 -10 -10 -11 -10 -2 0
6 -10 12 -21 12 -19 0 -20 -2 -8 -17 13 -17 13 -17 -5 -3 -10 8 -30 16 -44 18
-23 3 -24 2 -11 -15 13 -16 12 -17 -3 -4 -10 7 -18 10 -18 5 0 -4 -5 -3 -12 4
-7 7 -18 12 -26 12 -12 0 -12 -3 -1 -17 13 -17 12 -17 -6 -3 -22 17 -43 19
-64 6 -10 -6 -12 -5 -7 2 9 15 1 15 -26 1 -15 -8 -19 -8 -14 0 4 6 2 11 -3 11
-6 0 -11 -6 -11 -12 0 -8 -3 -9 -8 -3 -11 15 -55 17 -64 3 -4 -7 -8 -8 -8 -3
0 16 -70 18 -70 3 0 -8 -3 -9 -8 -3 -11 16 -72 19 -72 3 0 -8 -3 -9 -8 -3 -11
16 -64 18 -73 3 -5 -7 -9 -8 -9 -2 0 5 -19 11 -42 13 -38 2 -40 1 -27 -16 13
-17 13 -17 -5 -3 -10 8 -30 16 -44 18 -23 3 -24 2 -11 -15 13 -16 12 -17 -3
-4 -10 7 -18 10 -18 5 0 -4 -5 -3 -12 4 -7 7 -18 12 -26 12 -12 0 -12 -3 -1
-17 13 -17 12 -17 -6 -3 -22 17 -43 19 -64 6 -10 -6 -12 -5 -7 2 9 15 1 15
-26 1 -15 -8 -19 -8 -14 0 4 6 2 11 -3 11 -6 0 -11 -6 -11 -12 0 -8 -3 -9 -8
-3 -11 15 -55 17 -64 3 -4 -7 -8 -8 -8 -3 0 16 -70 18 -70 3 0 -8 -3 -9 -8 -3
-4 6 -18 11 -31 13 -17 3 -21 0 -16 -10 6 -10 5 -11 -6 0 -15 14 -43 17 -35 3
3 -4 -5 -7 -17 -6 -12 1 -22 3 -22 4 0 6 -74 8 -79 3z m929 -864 c5 4 5 1 1
-6 -5 -8 1 -16 16 -21 13 -6 16 -10 8 -10 -8 -1 0 -10 17 -21 24 -14 31 -24
26 -37 -5 -15 -3 -15 10 2 15 18 16 18 17 3 0 -10 5 -18 10 -18 6 0 10 -7 10
-15 0 -8 5 -15 11 -15 7 0 26 -16 45 -35 18 -19 37 -35 42 -35 6 0 16 -13 24
-30 7 -16 19 -30 25 -30 7 0 13 -4 13 -10 0 -5 9 -10 20 -10 14 0 18 -5 13
-17 -4 -11 -3 -14 5 -9 7 4 12 1 12 -6 0 -18 40 -53 40 -35 1 6 7 0 15 -14 8
-15 24 -29 36 -32 11 -3 18 -10 14 -16 -3 -6 0 -11 7 -11 7 0 24 -14 37 -30
13 -16 27 -27 32 -24 5 3 9 -2 9 -11 0 -9 5 -13 10 -10 6 3 10 -1 10 -9 0 -9
6 -16 14 -16 7 0 16 -10 19 -22 4 -12 9 -19 13 -16 8 8 34 -16 34 -31 0 -6 9
-11 20 -11 13 0 18 -5 14 -15 -4 -9 0 -15 10 -15 9 0 16 -4 16 -10 0 -5 7 -10
15 -10 8 0 21 -13 29 -28 8 -15 27 -34 43 -42 33 -18 53 -41 46 -54 -4 -5 -1
-6 5 -2 6 3 16 -3 22 -14 6 -11 17 -20 24 -20 7 0 22 -11 32 -25 10 -14 25
-25 32 -25 7 0 10 -5 7 -11 -4 -6 2 -13 14 -16 12 -3 21 -12 21 -19 0 -8 7
-14 16 -14 8 0 12 -4 9 -10 -3 -5 1 -10 9 -10 9 0 16 -7 16 -15 0 -8 7 -15 15
-15 8 0 15 -7 15 -15 0 -8 7 -15 16 -15 8 0 12 -4 9 -10 -3 -5 1 -10 9 -10 9
0 16 -6 16 -13 0 -8 11 -19 25 -25 14 -7 28 -19 31 -27 4 -8 10 -12 15 -9 5 3
9 0 9 -6 0 -6 5 -8 13 -4 7 5 6 0 -3 -11 -8 -10 -10 -16 -4 -12 16 9 68 -29
74 -55 4 -14 15 -24 28 -26 12 -2 22 -8 22 -13 0 -5 8 -9 18 -9 13 0 14 -2 3
-9 -11 -7 -9 -10 8 -16 11 -3 21 -13 21 -21 0 -8 5 -14 10 -14 13 0 70 -57 70
-70 0 -6 7 -10 15 -10 8 0 15 -5 15 -10 0 -6 6 -9 13 -8 7 2 11 -5 9 -16 -3
-17 -2 -18 13 -6 9 7 15 9 14 4 -1 -5 -1 -16 0 -24 1 -13 3 -13 10 -1 8 12 11
9 16 -12 4 -15 11 -28 16 -28 5 -1 15 -2 22 -3 16 -1 21 -41 7 -63 -11 -17
-11 -17 -6 0 3 9 1 17 -4 17 -6 0 -10 -7 -10 -15 0 -8 -4 -15 -10 -15 -5 0
-10 -9 -10 -20 0 -13 -5 -18 -15 -14 -8 4 -15 1 -15 -5 0 -6 -7 -11 -15 -11
-8 0 -15 -7 -15 -15 0 -8 -5 -15 -11 -15 -6 0 -9 -7 -5 -15 4 -10 -1 -15 -14
-15 -11 0 -20 -4 -20 -10 0 -5 -7 -10 -15 -10 -8 0 -15 -5 -15 -11 0 -14 -25
-39 -39 -39 -6 0 -11 -5 -11 -11 0 -5 -5 -7 -10 -4 -6 4 -10 3 -9 -2 4 -22 -4
-33 -36 -53 -19 -12 -33 -26 -29 -31 3 -5 -3 -9 -13 -9 -10 0 -26 -12 -35 -27
-10 -16 -18 -22 -18 -15 0 20 -30 -12 -30 -32 0 -8 -5 -18 -12 -22 -7 -4 -8
-3 -4 4 4 7 3 12 -2 12 -5 0 -12 -10 -15 -22 -4 -12 -9 -19 -13 -16 -8 8 -34
-16 -34 -31 0 -6 -5 -11 -11 -11 -14 0 -39 -25 -39 -39 0 -6 -7 -11 -15 -11
-8 0 -15 -7 -15 -15 0 -8 -7 -15 -15 -15 -8 0 -15 -4 -15 -10 0 -5 -7 -10 -15
-10 -9 0 -12 -6 -9 -15 5 -11 2 -13 -10 -9 -12 5 -16 0 -16 -17 0 -22 0 -22
-16 -3 -8 10 -13 14 -9 7 7 -15 -27 -51 -43 -45 -7 2 -12 -1 -12 -8 0 -6 4 -9
9 -5 5 3 12 1 16 -5 6 -10 -15 -15 -44 -10 -13 2 -13 0 0 -16 7 -10 9 -15 3
-11 -7 4 -14 0 -18 -8 -3 -8 -15 -15 -26 -15 -11 0 -20 -5 -20 -11 0 -14 -26
-39 -40 -39 -7 0 -10 -7 -6 -15 4 -10 -1 -15 -14 -15 -11 0 -20 -5 -20 -11 0
-11 -24 -39 -34 -39 -10 0 -46 -40 -46 -51 0 -5 -4 -7 -10 -4 -5 3 -10 -1 -10
-9 0 -9 -9 -16 -20 -16 -13 0 -18 -5 -13 -15 3 -9 2 -15 -3 -14 -24 4 -36 -2
-30 -16 4 -11 -1 -15 -17 -15 -18 0 -19 -2 -7 -10 13 -8 12 -10 -5 -11 -11 -1
-23 -1 -27 0 -4 0 -5 -6 -2 -14 4 -10 0 -15 -15 -15 -12 0 -21 -4 -21 -10 0
-5 -7 -10 -15 -10 -8 0 -15 -5 -15 -11 0 -6 7 -8 16 -5 8 3 12 2 9 -4 -3 -6
-13 -10 -21 -10 -8 0 -17 -7 -20 -15 -4 -8 -12 -15 -20 -15 -8 0 -14 -4 -14
-10 0 -5 -7 -10 -15 -10 -8 0 -15 -7 -15 -15 0 -8 -4 -15 -10 -15 -5 0 -10 -7
-10 -15 0 -8 -7 -15 -15 -15 -8 0 -15 -5 -15 -11 0 -6 -7 -9 -15 -5 -10 4 -15
-1 -15 -14 0 -11 -4 -20 -10 -20 -5 0 -10 -7 -10 -15 0 -8 -4 -15 -10 -15 -15
0 -50 -33 -44 -42 3 -4 -2 -5 -10 -2 -11 4 -16 0 -16 -10 0 -9 -5 -16 -11 -16
-5 0 -7 6 -4 13 4 6 0 4 -8 -5 -8 -10 -18 -14 -23 -10 -4 4 -2 -1 5 -10 12
-16 11 -18 -5 -19 -11 -1 -23 -1 -28 0 -5 1 -6 -4 -3 -12 3 -8 -7 -18 -24 -26
-16 -7 -29 -17 -29 -22 0 -6 6 -7 13 -4 6 4 4 0 -5 -8 -10 -8 -14 -17 -10 -22
4 -4 -2 -2 -13 5 -20 12 -20 22 -20 1493 0 815 4 1487 8 1494 4 6 3 15 -3 18
-6 4 -9 2 -8 -3 2 -6 -1 -10 -7 -11 -5 -1 -10 5 -11 12 -1 21 7 28 20 18 7 -6
17 -7 21 -3z m-29 -73 c0 -28 -8 -24 -13 5 -2 11 1 20 5 20 4 0 8 -11 8 -25z
m-1 -99 c0 -36 -2 -63 -4 -60 -8 7 -9 124 -2 124 4 0 6 -29 6 -64z m1 -101 c0
-28 -8 -24 -13 5 -2 11 1 20 5 20 4 0 8 -11 8 -25z m0 -80 c0 -28 -8 -24 -13
5 -2 11 1 20 5 20 4 0 8 -11 8 -25z m-1 -99 c0 -36 -2 -63 -4 -60 -8 7 -9 124
-2 124 4 0 6 -29 6 -64z m1 -101 c0 -28 -8 -24 -13 5 -2 11 1 20 5 20 4 0 8
-11 8 -25z m-1 -99 c0 -36 -2 -63 -4 -60 -8 7 -9 124 -2 124 4 0 6 -29 6 -64z
m1 -101 c0 -28 -8 -24 -13 5 -2 11 1 20 5 20 4 0 8 -11 8 -25z m0 -80 c0 -28
-8 -24 -13 5 -2 11 1 20 5 20 4 0 8 -11 8 -25z m-1 -99 c0 -36 -2 -63 -4 -60
-8 7 -9 124 -2 124 4 0 6 -29 6 -64z m1 -101 c0 -28 -8 -24 -13 5 -2 11 1 20
5 20 4 0 8 -11 8 -25z m-1 -99 c0 -36 -2 -63 -4 -60 -8 7 -9 124 -2 124 4 0 6
-29 6 -64z m1 -101 c0 -28 -8 -24 -13 5 -2 11 1 20 5 20 4 0 8 -11 8 -25z m0
-80 c0 -28 -8 -24 -13 5 -2 11 1 20 5 20 4 0 8 -11 8 -25z m-1 -99 c0 -36 -2
-63 -4 -60 -8 7 -9 124 -2 124 4 0 6 -29 6 -64z m1 -101 c0 -28 -8 -24 -13 5
-2 11 1 20 5 20 4 0 8 -11 8 -25z m-1 -99 c0 -36 -2 -63 -4 -60 -8 7 -9 124
-2 124 4 0 6 -29 6 -64z m1 -101 c0 -28 -8 -24 -13 5 -2 11 1 20 5 20 4 0 8
-11 8 -25z m0 -80 c0 -28 -8 -24 -13 5 -2 11 1 20 5 20 4 0 8 -11 8 -25z m-1
-99 c0 -36 -2 -63 -4 -60 -8 7 -9 124 -2 124 4 0 6 -29 6 -64z m1 -101 c0 -28
-8 -24 -13 5 -2 11 1 20 5 20 4 0 8 -11 8 -25z m-1 -99 c0 -36 -2 -63 -4 -60
-8 7 -9 124 -2 124 4 0 6 -29 6 -64z m1 -101 c0 -28 -8 -24 -13 5 -2 11 1 20
5 20 4 0 8 -11 8 -25z m0 -80 c0 -28 -8 -24 -13 5 -2 11 1 20 5 20 4 0 8 -11
8 -25z m-1 -99 c0 -36 -2 -63 -4 -60 -8 7 -9 124 -2 124 4 0 6 -29 6 -64z m1
-101 c0 -28 -8 -24 -13 5 -2 11 1 20 5 20 4 0 8 -11 8 -25z m-1 -99 c0 -36 -2
-63 -4 -60 -8 7 -9 124 -2 124 4 0 6 -29 6 -64z m1 -101 c0 -28 -8 -24 -13 5
-2 11 1 20 5 20 4 0 8 -11 8 -25z m0 -80 c0 -28 -8 -24 -13 5 -2 11 1 20 5 20
4 0 8 -11 8 -25z m-1 -99 c0 -36 -2 -63 -4 -60 -8 7 -9 124 -2 124 4 0 6 -29
6 -64z m1 -101 c0 -28 -8 -24 -13 5 -2 11 1 20 5 20 4 0 8 -11 8 -25z m1 -42
c-4 -3 0 -14 9 -24 14 -16 14 -17 -2 -15 -19 3 -31 46 -12 46 6 0 8 -3 5 -7z"/>
<path d="M3470 5880 c0 -5 5 -10 11 -10 5 0 7 5 4 10 -3 6 -8 10 -11 10 -2 0
-4 -4 -4 -10z"/>
<path d="M3550 5800 c0 -5 5 -10 11 -10 5 0 7 5 4 10 -3 6 -8 10 -11 10 -2 0
-4 -4 -4 -10z"/>
<path d="M5753 7491 c9 -12 9 -13 0 -7 -7 4 -13 3 -13 -3 0 -6 -7 -8 -15 -5
-8 4 -15 1 -15 -6 0 -14 -25 -40 -39 -40 -6 0 -11 -7 -11 -15 0 -8 -7 -15 -15
-15 -8 0 -15 -5 -15 -11 0 -16 -26 -39 -45 -39 -9 0 -13 -5 -10 -10 8 -13 -19
-40 -39 -40 -10 0 -13 -6 -9 -17 4 -11 3 -14 -6 -9 -8 5 -14 1 -18 -13 -3 -11
-9 -19 -13 -16 -4 3 -10 -1 -13 -9 -3 -8 -16 -16 -29 -18 -15 -2 -24 -11 -26
-27 -3 -19 -6 -21 -13 -10 -7 11 -9 9 -9 -8 0 -17 -4 -21 -17 -16 -11 4 -14 3
-9 -5 5 -8 0 -12 -13 -12 -14 0 -19 -5 -15 -15 4 -9 0 -15 -10 -15 -9 0 -16
-7 -16 -15 0 -8 -5 -15 -11 -15 -6 0 -17 -6 -25 -14 -8 -8 -14 -19 -14 -25 0
-6 -7 -11 -15 -11 -8 0 -15 -4 -15 -10 0 -5 -9 -10 -20 -10 -13 0 -18 -5 -14
-15 4 -9 0 -15 -10 -15 -10 0 -13 -6 -10 -15 4 -9 0 -15 -10 -15 -9 0 -16 -4
-16 -9 0 -5 -9 -11 -21 -14 -12 -3 -18 -10 -14 -16 5 -10 -15 -16 -38 -12 -5
1 -6 -3 -2 -9 8 -14 -19 -40 -42 -40 -14 0 -15 -2 -5 -9 11 -7 10 -9 -3 -15
-10 -3 -13 -11 -9 -18 5 -8 0 -7 -11 2 -17 13 -18 13 -13 -1 4 -10 -3 -19 -23
-28 -16 -7 -29 -17 -29 -22 0 -6 5 -7 12 -3 7 4 8 3 4 -4 -4 -7 -17 -12 -29
-12 -16 0 -18 -3 -9 -12 7 -7 12 -17 12 -22 0 -6 -5 -4 -10 4 -8 13 -10 12
-10 -2 0 -13 8 -18 25 -18 14 0 25 -5 25 -11 0 -5 -4 -7 -10 -4 -5 3 -10 2
-10 -3 0 -5 13 -15 29 -22 21 -8 28 -17 23 -28 -5 -15 -4 -16 13 -2 11 9 16
10 11 3 -5 -9 -1 -13 11 -13 11 0 14 -3 7 -8 -7 -5 -5 -14 9 -27 11 -11 17
-14 13 -7 -4 6 -2 12 3 12 6 0 11 -7 11 -15 0 -9 6 -12 15 -8 9 3 15 2 14 -3
-4 -21 2 -35 11 -29 6 3 10 -3 10 -14 0 -14 5 -19 15 -15 8 4 15 1 15 -5 0 -6
7 -11 16 -11 10 0 14 -6 10 -15 -3 -9 0 -15 9 -15 8 0 15 -4 15 -10 0 -5 7
-10 15 -10 8 0 15 -7 15 -16 0 -8 5 -12 11 -9 6 4 13 -2 16 -14 3 -11 9 -18
14 -15 5 3 9 -1 9 -9 0 -8 12 -18 27 -22 21 -5 24 -8 12 -16 -12 -7 -11 -9 3
-9 12 0 15 -5 11 -17 -6 -16 -5 -16 11 -4 9 8 16 10 15 5 -1 -5 -1 -16 0 -24
1 -13 3 -13 10 -1 8 12 11 9 16 -11 4 -17 16 -29 31 -32 14 -4 23 -10 20 -14
-2 -4 9 -14 25 -21 16 -7 29 -17 29 -22 0 -6 -5 -7 -12 -3 -7 4 -8 3 -4 -4 4
-7 16 -12 27 -12 10 0 19 -4 19 -10 0 -5 7 -10 15 -10 8 0 15 -6 15 -14 0 -24
23 -36 42 -22 10 7 15 16 11 19 -3 4 2 9 11 13 9 3 13 10 10 15 -3 5 1 6 9 3
8 -3 18 0 22 5 3 6 11 9 16 6 5 -3 6 1 3 9 -4 11 0 16 10 16 9 0 16 7 16 16 0
10 5 14 15 10 11 -4 15 0 13 11 -2 10 2 18 9 18 6 0 20 10 31 23 11 12 24 22
31 22 6 0 11 7 11 15 0 8 7 15 15 15 8 0 15 5 15 11 0 16 29 41 40 34 5 -3 10
3 10 14 0 12 5 21 10 21 6 0 10 7 10 15 0 8 7 15 15 15 8 0 15 5 15 10 0 6 9
10 19 10 11 0 23 5 27 12 4 7 3 8 -4 4 -19 -11 -14 5 6 20 9 7 26 14 37 14 11
1 14 4 8 7 -7 2 -13 9 -13 14 0 6 4 8 9 5 4 -3 17 2 27 10 10 9 13 12 6 9 -11
-6 -11 -3 0 14 7 12 14 17 16 11 2 -5 8 -10 13 -10 6 0 7 5 4 10 -3 6 0 10 7
10 8 0 21 9 31 20 20 23 22 34 5 24 -7 -4 -8 -3 -4 4 4 7 14 12 22 12 18 0 44
24 44 39 0 6 7 11 15 11 8 0 15 7 15 15 0 8 7 15 16 15 8 0 12 5 9 10 -3 6 1
10 9 10 9 0 16 7 16 15 0 8 7 15 15 15 8 0 15 5 15 10 0 6 6 10 14 10 8 0 20
14 28 30 14 32 34 42 24 13 -5 -16 -4 -15 9 1 8 10 12 23 9 27 -3 5 2 9 11 9
10 0 13 -5 9 -12 -5 -8 -2 -9 9 -5 12 5 17 1 17 -13 0 -11 5 -20 11 -20 5 0 8
4 4 9 -3 5 -2 12 3 15 5 3 9 -1 10 -9 1 -8 3 -21 4 -28 2 -16 28 -42 28 -27 0
5 4 10 10 10 5 0 9 -5 7 -12 -1 -7 3 -12 10 -13 19 0 52 -45 46 -63 -4 -13 -2
-12 11 3 9 11 15 16 14 10 -3 -12 57 -75 72 -75 5 0 10 -7 10 -15 0 -8 7 -15
15 -15 8 0 15 -5 15 -11 0 -16 27 -40 42 -37 8 2 12 -4 10 -14 -2 -10 2 -18 8
-18 5 0 10 -7 10 -16 0 -10 6 -14 15 -10 9 3 15 0 15 -8 0 -8 12 -17 28 -21
15 -4 21 -10 15 -12 -17 -6 8 -32 36 -36 11 -2 24 -7 28 -12 5 -4 2 -5 -4 -1
-7 4 -13 2 -13 -3 0 -6 6 -11 14 -11 8 0 18 -5 22 -12 5 -7 3 -8 -6 -3 -9 5
-11 4 -6 -3 4 -7 16 -12 27 -12 10 0 19 -4 19 -10 0 -5 8 -10 18 -11 15 0 14
-1 -3 -8 -17 -7 -17 -8 8 -15 15 -3 27 -13 27 -21 0 -8 5 -15 11 -15 14 0 33
-20 42 -43 4 -10 11 -15 17 -12 5 3 10 -1 10 -9 0 -9 4 -16 10 -16 15 0 50
-33 44 -42 -3 -4 1 -8 10 -8 8 0 16 -5 18 -10 2 -6 13 -12 24 -12 11 -1 21 -8
21 -15 0 -6 -5 -10 -10 -6 -5 3 -6 -3 -2 -16 5 -15 2 -21 -9 -21 -20 0 -56
-31 -56 -48 0 -7 -4 -10 -10 -7 -5 3 -10 -1 -10 -9 0 -9 -7 -16 -16 -16 -8 0
-12 -4 -9 -10 3 -5 -3 -10 -14 -10 -12 0 -21 -7 -21 -15 0 -8 -4 -15 -10 -15
-5 0 -10 -6 -10 -14 0 -7 -9 -16 -21 -19 -11 -3 -23 -15 -26 -26 -3 -12 -12
-21 -19 -21 -8 0 -14 -4 -14 -10 0 -5 -7 -7 -15 -4 -10 4 -15 0 -15 -16 0 -11
-4 -18 -10 -15 -5 3 -10 1 -10 -4 0 -6 -6 -11 -14 -11 -7 0 -16 -9 -19 -21 -3
-12 -10 -18 -16 -14 -6 3 -11 1 -11 -5 0 -6 -5 -8 -12 -4 -8 5 -8 2 1 -10 8
-9 10 -16 5 -15 -26 5 -43 -2 -38 -16 4 -11 -1 -15 -17 -15 -19 0 -21 -2 -9
-10 12 -8 11 -10 -7 -10 -13 0 -23 -4 -23 -10 0 -13 -57 -70 -71 -70 -6 0 -9
-7 -5 -15 4 -10 -1 -15 -14 -15 -11 0 -20 -5 -20 -11 0 -5 -4 -7 -10 -4 -5 3
-10 -3 -10 -13 0 -12 -9 -22 -22 -25 -12 -4 -19 -9 -15 -13 4 -4 -10 -16 -30
-25 -21 -10 -38 -23 -38 -31 0 -7 -9 -12 -20 -11 -20 1 -20 1 -1 -13 19 -14
19 -14 -3 -14 -12 0 -19 -4 -16 -10 6 -10 -7 -14 -34 -11 -7 2 -10 -3 -6 -9 8
-12 -64 -82 -77 -74 -4 3 -8 -2 -8 -10 0 -9 -4 -16 -10 -16 -5 0 -10 -7 -10
-15 0 -8 -6 -15 -14 -15 -8 0 -17 -7 -20 -16 -3 -8 -10 -12 -16 -9 -5 3 -10 1
-10 -5 0 -15 -20 -34 -43 -43 -11 -4 -15 -12 -11 -19 5 -8 2 -9 -9 -5 -11 4
-17 1 -17 -9 0 -20 -30 -52 -30 -32 -1 7 -7 1 -15 -13 -8 -15 -24 -29 -36 -32
-11 -3 -18 -10 -15 -15 3 -5 -2 -16 -11 -23 -14 -12 -16 -12 -9 1 4 9 2 8 -7
-2 -8 -10 -18 -14 -22 -10 -5 4 -5 -1 -2 -10 6 -17 -3 -23 -26 -19 -5 1 -6 -2
-4 -6 3 -5 -1 -17 -9 -28 -8 -10 -14 -13 -14 -6 0 9 -5 8 -16 -3 -8 -9 -13
-20 -10 -24 3 -5 -10 -15 -29 -22 -19 -8 -35 -20 -35 -27 0 -7 -4 -13 -10 -13
-5 0 -10 -7 -10 -15 0 -8 -7 -15 -15 -15 -8 0 -15 -4 -15 -10 0 -5 -7 -10 -15
-10 -9 0 -12 -6 -9 -15 4 -9 0 -15 -10 -15 -9 0 -16 -5 -16 -10 0 -6 -11 -15
-25 -20 -22 -9 -30 -20 -26 -42 2 -13 -17 -9 -22 5 -3 6 -6 1 -6 -11 -1 -15
-9 -26 -21 -29 -11 -3 -17 -10 -13 -17 3 -6 3 -8 -2 -4 -13 12 -45 -12 -46
-35 0 -12 -3 -16 -6 -9 -2 6 -9 12 -14 12 -6 0 -7 -4 -4 -10 3 -5 -1 -10 -9
-10 -9 0 -16 -7 -16 -15 0 -8 -7 -15 -16 -15 -8 0 -13 -4 -10 -8 6 -9 -29 -42
-44 -42 -6 0 -10 -7 -10 -15 0 -8 -7 -15 -15 -15 -8 0 -15 -5 -15 -11 0 -14
-25 -39 -39 -39 -6 0 -11 -7 -11 -16 0 -10 -6 -14 -15 -10 -10 4 -15 -1 -15
-14 0 -11 -7 -20 -16 -20 -9 0 -12 -5 -8 -12 5 -8 2 -8 -10 1 -14 12 -17 12
-14 1 2 -8 -4 -14 -12 -15 -8 0 -16 -10 -18 -22 -2 -15 -10 -23 -22 -23 -10 0
-22 -5 -26 -12 -5 -8 -2 -9 10 -5 10 4 15 3 11 -3 -3 -6 -15 -10 -26 -10 -10
0 -19 -5 -19 -11 0 -5 5 -7 12 -3 7 4 8 3 4 -4 -4 -7 -17 -12 -29 -12 -13 0
-17 -3 -11 -8 9 -5 8 -11 -2 -20 -8 -7 -14 -8 -14 -2 0 5 -5 10 -11 10 -6 0
-9 -7 -5 -15 3 -9 0 -15 -9 -15 -8 0 -15 -7 -15 -15 0 -8 -7 -15 -16 -15 -8 0
-12 -4 -9 -10 6 -9 -8 -14 -27 -11 -5 0 -8 -3 -8 -9 0 -15 -33 -50 -48 -50 -7
0 -10 -4 -7 -10 3 -5 -1 -10 -9 -10 -9 0 -16 -5 -16 -11 0 -16 -26 -39 -44
-39 -10 0 -13 -6 -10 -15 5 -11 2 -13 -10 -9 -14 5 -16 -7 -17 -97 -1 -57 -1
-110 0 -118 2 -8 -3 -10 -11 -6 -10 6 -11 5 0 -6 16 -17 16 -51 0 -68 -10 -11
-10 -13 0 -7 8 5 12 -1 12 -19 0 -18 -4 -24 -12 -19 -10 6 -10 4 0 -7 6 -7 12
-22 12 -34 0 -12 -6 -27 -12 -34 -10 -11 -10 -13 0 -7 8 5 12 -1 12 -19 0 -18
-4 -24 -12 -19 -10 6 -10 4 0 -8 17 -21 16 -241 -2 -231 -6 3 -6 0 2 -8 6 -7
12 -22 12 -34 0 -12 -6 -27 -12 -34 -10 -11 -10 -13 0 -7 8 5 12 0 12 -16 0
-13 -6 -30 -12 -37 -10 -11 -10 -13 0 -7 8 5 12 0 12 -16 0 -13 -6 -30 -12
-37 -10 -11 -10 -13 0 -7 8 5 12 -1 12 -19 0 -18 -4 -24 -12 -19 -10 6 -10 4
0 -8 16 -20 15 -230 -2 -240 -8 -6 -8 -8 2 -8 7 0 12 -14 12 -37 0 -33 3 -38
24 -38 15 0 21 4 16 10 -5 6 5 10 28 11 21 1 31 -1 25 -3 -21 -8 -15 -22 7
-16 11 3 18 8 16 12 -2 3 626 6 1395 6 1233 0 1401 -2 1410 -15 8 -12 9 -11 7
5 -2 13 2 19 12 18 13 -2 16 14 16 102 0 58 -3 105 -6 105 -3 0 -5 -45 -5 -99
0 -55 -2 -98 -5 -96 -7 4 -7 752 1 759 3 3 5 -17 4 -44 -1 -28 1 -50 5 -50 3
0 6 49 5 110 l0 110 -969 0 c-532 0 -972 3 -977 6 -5 3 -7 10 -3 15 3 5 10 7
15 3 6 -3 9 2 7 12 -2 13 2 18 15 16 19 -3 23 14 5 21 -7 3 0 6 15 6 16 1 26
5 22 11 -3 6 1 10 9 10 9 0 16 9 16 20 0 13 5 18 15 14 8 -4 15 -1 15 5 0 6 7
11 15 11 8 0 15 7 15 15 0 8 7 15 15 15 9 0 12 6 9 15 -4 8 -1 15 6 15 14 0
40 25 40 39 0 6 6 11 14 11 8 0 16 7 20 15 3 8 13 15 21 15 9 0 13 5 10 10 -6
9 8 15 29 11 5 -1 3 5 -4 14 -11 13 -10 15 2 10 10 -4 17 1 21 14 3 13 13 21
27 21 11 0 18 5 15 10 -6 9 8 15 29 11 5 -1 6 4 3 12 -3 8 7 18 25 26 18 8 27
18 24 27 -4 9 2 14 15 14 15 0 19 5 15 15 -3 9 0 15 9 15 8 0 15 7 15 15 0 9
6 12 15 9 9 -4 15 0 15 9 0 8 10 17 22 20 12 4 19 9 16 13 -10 9 17 34 36 34
10 0 13 6 9 16 -4 11 -1 15 13 12 14 -2 18 2 16 15 -2 10 3 16 10 15 7 -2 12
3 10 10 -2 10 25 17 51 13 5 -1 6 3 2 9 -3 6 -11 7 -17 4 -7 -4 -8 -2 -4 4 4
7 14 12 22 12 8 0 19 10 24 23 5 12 9 16 9 10 1 -7 6 -13 12 -13 5 0 7 5 4 10
-3 6 1 13 9 16 9 3 16 10 16 16 0 5 -5 6 -12 2 -7 -4 -8 -3 -4 4 4 7 16 12 27
12 11 0 17 5 14 10 -3 6 3 10 14 10 12 0 21 7 21 15 0 8 5 15 11 15 5 0 7 5 4
11 -4 6 2 13 14 16 12 3 21 9 21 14 0 5 7 9 15 9 8 0 15 7 15 15 0 8 7 15 15
15 9 0 12 6 8 17 -5 12 -2 15 10 10 11 -4 17 -1 17 8 0 8 7 15 15 15 8 0 15 7
15 15 0 14 12 20 33 16 5 -1 6 3 2 9 -3 5 -1 10 4 10 6 0 11 7 11 15 0 14 13
20 34 16 5 -1 3 6 -5 15 -12 16 -12 17 3 11 10 -3 20 -2 23 4 4 5 11 7 16 3 5
-3 8 0 7 8 -2 7 3 12 11 10 7 -2 11 3 9 10 -3 7 -2 22 3 33 6 17 8 17 8 3 1
-10 6 -18 12 -18 6 0 9 7 5 15 -3 8 -1 15 4 15 24 0 50 20 50 39 0 6 7 11 16
11 10 0 14 6 10 15 -3 9 0 15 10 15 18 0 44 23 44 39 0 6 7 11 15 11 8 0 15 5
15 11 0 5 5 7 10 4 6 -3 10 3 10 13 0 12 9 22 21 25 12 3 18 10 14 16 -3 7 3
11 15 11 12 0 18 5 15 10 -3 6 -1 11 4 11 6 1 16 2 22 3 13 1 29 37 22 49 -2
4 -1 7 4 6 24 -4 43 3 43 16 0 9 7 18 15 21 8 3 17 14 20 25 4 11 10 17 15 14
5 -3 15 2 23 10 9 8 20 15 26 15 6 0 10 3 10 8 -3 19 2 33 11 27 6 -3 10 -1
10 4 0 6 7 11 15 11 8 0 15 7 15 15 0 8 7 15 15 15 8 0 15 7 15 16 0 8 5 12
10 9 6 -3 10 1 10 9 0 9 7 16 15 16 8 0 15 7 15 15 0 8 5 15 10 15 14 0 50 37
42 44 -3 3 4 6 16 6 15 0 20 5 16 15 -4 8 -1 15 5 15 6 0 11 -6 11 -12 0 -9 3
-9 9 1 5 8 7 21 3 29 -3 10 -1 13 6 8 7 -4 12 -3 12 3 0 6 8 8 18 5 14 -5 14
-4 2 5 -17 11 -22 118 -6 128 5 4 6 0 1 -8 -5 -8 -4 -11 1 -6 9 9 14 207 4
207 -3 0 -5 -40 -5 -90 0 -49 -2 -87 -5 -84 -7 8 -7 455 1 459 3 2 5 -18 4
-45 -1 -28 1 -50 4 -50 4 0 6 56 6 125 0 69 -2 125 -5 125 -3 0 -6 -31 -5 -70
1 -38 -1 -67 -4 -64 -8 8 -8 613 0 608 4 -2 5 -17 4 -34 -1 -16 1 -30 5 -30 4
0 7 18 6 39 0 22 -3 38 -5 36 -8 -8 -41 16 -41 30 0 7 -5 17 -12 21 -7 4 -8 3
-4 -4 4 -7 2 -12 -3 -12 -6 0 -11 5 -11 10 0 6 -7 10 -16 10 -10 0 -14 6 -10
15 3 9 0 15 -10 15 -10 0 -14 6 -10 15 4 10 -1 15 -15 15 -11 0 -17 5 -14 10
3 6 -3 10 -14 10 -12 0 -21 7 -21 15 0 8 -4 15 -10 15 -5 0 -10 7 -10 15 0 8
-6 15 -14 15 -8 0 -16 5 -18 10 -2 6 -13 12 -25 13 -17 1 -19 4 -11 14 7 9 7
13 -1 13 -6 0 -11 7 -11 16 0 8 -5 12 -10 9 -6 -4 -7 -12 -4 -18 4 -7 3 -8 -2
-4 -5 5 -10 13 -10 18 -1 5 -2 14 -3 20 0 5 -5 7 -11 4 -5 -3 -10 3 -10 14 0
15 -7 21 -22 21 -13 0 -31 7 -40 14 -19 14 -25 32 -8 21 6 -3 10 -4 10 0 0 3
-12 10 -27 16 -22 8 -24 12 -13 19 12 8 11 10 -5 11 -11 1 -23 1 -27 0 -5 0
-8 6 -8 15 0 8 -4 12 -10 9 -5 -3 -10 1 -10 9 0 9 -7 16 -15 16 -8 0 -15 9
-15 21 0 11 -5 17 -10 14 -11 -7 -40 18 -40 34 0 6 -7 11 -15 11 -8 0 -15 5
-15 11 0 16 -26 39 -44 39 -10 0 -13 6 -10 15 4 8 1 15 -5 15 -6 0 -11 -6 -11
-12 0 -9 -3 -8 -9 2 -6 8 -7 18 -5 22 3 4 0 8 -5 8 -6 0 -11 7 -11 15 0 14
-17 20 -50 15 -11 -1 -9 3 5 15 17 14 17 16 3 11 -12 -4 -18 0 -18 12 0 15 -2
15 -10 2 -8 -12 -10 -11 -10 8 0 12 -5 22 -11 22 -5 0 -7 -4 -4 -10 3 -5 1
-10 -4 -10 -10 0 -16 21 -12 43 2 12 -17 8 -22 -5 -4 -9 -6 -8 -6 2 -1 10 -13
16 -37 18 -34 2 -35 1 -23 -15 13 -17 13 -17 -5 -3 -10 8 -30 16 -44 18 -23 3
-24 2 -11 -15 13 -16 12 -17 -3 -4 -10 7 -18 10 -18 5 0 -4 -5 -3 -12 4 -7 7
-18 12 -26 12 -12 0 -12 -3 -1 -17 13 -17 12 -17 -6 -3 -22 17 -43 19 -64 6
-10 -6 -12 -5 -7 2 9 15 1 15 -26 1 -15 -8 -19 -8 -14 0 4 6 2 11 -3 11 -6 0
-11 -6 -11 -12 0 -8 -3 -9 -8 -3 -4 6 -23 12 -41 13 -33 4 -34 3 -20 -15 13
-17 13 -17 -5 -3 -10 8 -30 16 -44 18 -23 3 -24 2 -11 -15 13 -16 12 -17 -3
-4 -10 7 -18 10 -18 5 0 -4 -5 -3 -12 4 -7 7 -18 12 -26 12 -12 0 -12 -3 -1
-17 13 -17 12 -17 -6 -3 -22 17 -43 19 -64 6 -10 -6 -12 -5 -7 2 9 15 1 15
-26 1 -15 -8 -19 -8 -14 0 4 6 2 11 -3 11 -6 0 -11 -6 -11 -12 0 -8 -3 -9 -8
-3 -4 6 -23 12 -41 13 -33 4 -34 3 -20 -15 13 -17 13 -17 -5 -3 -10 8 -30 16
-44 18 -23 3 -24 2 -11 -15 13 -16 12 -17 -3 -4 -10 7 -18 10 -18 5 0 -4 -5
-3 -12 4 -7 7 -18 12 -26 12 -12 0 -12 -3 -1 -17 13 -17 12 -17 -6 -3 -22 17
-43 19 -64 6 -10 -6 -12 -5 -7 2 9 15 1 15 -26 1 -15 -8 -19 -8 -14 0 4 6 2
11 -3 11 -6 0 -11 -6 -11 -12 0 -8 -3 -9 -8 -3 -4 6 -23 12 -41 13 -33 4 -34
3 -20 -15 13 -17 13 -17 -5 -3 -10 8 -30 16 -44 18 -23 3 -24 2 -11 -15 13
-16 12 -17 -3 -4 -10 7 -18 10 -18 5 0 -4 -5 -3 -12 4 -7 7 -18 12 -26 12 -12
0 -12 -3 -1 -17 13 -17 12 -17 -6 -3 -22 17 -43 19 -64 6 -10 -6 -12 -5 -7 2
9 16 -7 15 -22 0 -7 -7 -12 -8 -12 -2 0 14 -31 14 -47 1 -8 -6 -13 -6 -13 0 0
5 -7 10 -15 10 -12 0 -12 -3 -2 -16z m1457 -111 c0 -5 -2 -10 -4 -10 -3 0 -8
5 -11 10 -3 6 -1 10 4 10 6 0 11 -4 11 -10z m-1760 -180 c0 -5 -4 -10 -10 -10
-5 0 -10 5 -10 10 0 6 5 10 10 10 6 0 10 -4 10 -10z m2130 -160 c0 -5 -2 -10
-4 -10 -3 0 -8 5 -11 10 -3 6 -1 10 4 10 6 0 11 -4 11 -10z m-1020 -1580 c0
-5 -2 -10 -4 -10 -3 0 -8 5 -11 10 -3 6 -1 10 4 10 6 0 11 -4 11 -10z m910
-390 c0 -5 -2 -10 -4 -10 -3 0 -8 5 -11 10 -3 6 -1 10 4 10 6 0 11 -4 11 -10z
m-1330 -10 c0 -5 -2 -10 -4 -10 -3 0 -8 5 -11 10 -3 6 -1 10 4 10 6 0 11 -4
11 -10z m-775 -710 c3 -5 1 -10 -4 -10 -6 0 -11 5 -11 10 0 6 2 10 4 10 3 0 8
-4 11 -10z m2550 -755 c1 -25 -1 -42 -4 -39 -3 3 -6 25 -6 49 -1 25 1 42 4 39
3 -3 6 -25 6 -49z"/>
<path d="M8726 7498 c6 -10 -37 -28 -51 -20 -5 3 -5 -1 2 -8 9 -10 9 -16 -2
-26 -7 -8 -18 -14 -24 -14 -6 0 -11 -7 -11 -16 0 -8 -5 -12 -11 -9 -6 4 -13
-2 -16 -14 -3 -12 -11 -21 -18 -21 -7 0 -24 -11 -39 -25 -15 -14 -32 -25 -39
-25 -8 0 -8 -3 1 -9 11 -7 10 -10 -3 -15 -9 -3 -22 -3 -27 1 -7 3 -8 1 -4 -6
4 -6 0 -14 -8 -17 -9 -3 -16 -12 -16 -20 0 -8 -8 -14 -17 -14 -15 0 -16 -2 -3
-10 12 -7 8 -10 -15 -11 -16 0 -24 -3 -17 -6 13 -5 17 -24 5 -22 -21 3 -33 -2
-33 -16 0 -8 -7 -15 -15 -15 -8 0 -15 -7 -15 -15 0 -9 -6 -12 -15 -9 -9 4 -15
0 -15 -10 0 -9 -4 -16 -10 -16 -5 0 -10 -7 -10 -15 0 -8 -7 -15 -15 -15 -8 0
-15 -4 -15 -10 0 -5 -7 -10 -15 -10 -8 0 -15 -7 -15 -16 0 -8 -4 -12 -10 -9
-5 3 -10 -1 -10 -9 0 -9 -4 -16 -9 -16 -6 0 -25 -14 -43 -32 -18 -17 -25 -26
-15 -19 15 12 17 11 17 -8 0 -11 5 -21 10 -21 6 0 10 -7 10 -16 0 -10 6 -14
15 -10 8 3 15 1 15 -4 0 -20 3 -25 24 -40 11 -8 26 -18 31 -22 6 -5 19 -16 30
-24 11 -9 13 -12 5 -8 -13 7 -13 5 -2 -8 8 -10 20 -14 29 -11 11 4 14 2 9 -5
-5 -8 0 -12 13 -12 12 0 21 -5 21 -11 0 -5 -4 -8 -9 -4 -5 3 -13 1 -16 -5 -4
-6 -3 -9 2 -8 15 5 73 -27 73 -39 0 -7 7 -13 16 -13 10 0 14 -6 10 -15 -3 -9
0 -15 8 -15 8 0 17 -7 20 -16 3 -8 10 -12 16 -9 5 3 10 -1 10 -9 0 -9 5 -16
10 -16 6 0 10 -6 10 -13 0 -6 14 -18 30 -25 17 -8 30 -20 30 -28 0 -9 5 -12
10 -9 6 3 10 0 10 -7 0 -17 31 -44 60 -53 14 -4 18 -10 12 -14 -7 -4 -4 -11 9
-20 12 -7 18 -8 14 -2 -3 6 -1 11 4 11 6 0 11 -7 11 -15 0 -10 6 -12 18 -8 15
6 15 5 3 -11 -8 -9 -10 -16 -5 -15 29 5 36 -1 23 -18 -7 -10 -9 -15 -5 -11 5
4 22 0 38 -10 24 -14 30 -14 37 -3 7 11 9 11 14 0 4 -10 6 -10 6 -1 1 6 8 12
16 12 8 0 15 9 15 21 0 11 5 17 10 14 6 -3 10 1 10 9 0 9 7 16 15 16 8 0 15 4
15 9 0 5 10 11 22 14 12 4 19 9 16 13 -8 8 16 34 31 34 6 0 11 7 11 15 0 8 5
15 10 15 14 0 50 37 43 44 -4 3 7 6 23 6 22 0 25 3 14 10 -16 10 -15 11 20 28
14 7 16 10 5 7 -16 -5 -17 -4 -8 6 10 10 17 9 33 -6 11 -10 20 -23 20 -28 0
-6 -7 -2 -15 9 -14 18 -15 16 -13 -26 1 -25 6 -51 12 -59 8 -11 8 -13 -1 -7
-19 11 -17 -39 2 -54 8 -7 15 -17 15 -23 0 -6 -7 -2 -15 9 -13 18 -14 16 -12
-26 1 -25 6 -51 11 -59 6 -10 5 -12 -2 -7 -18 11 -15 -39 3 -54 8 -7 15 -17
15 -23 0 -6 -7 -2 -15 9 -13 18 -14 16 -12 -26 1 -25 6 -51 11 -59 6 -10 5
-12 -2 -7 -18 11 -15 -39 3 -54 8 -7 15 -17 15 -23 0 -6 -6 -2 -14 9 -13 17
-14 12 -13 -51 2 -52 5 -69 15 -67 8 1 11 -2 7 -8 -3 -6 -11 -8 -16 -4 -7 4
-9 -9 -7 -32 2 -26 7 -38 16 -36 8 1 11 -2 7 -8 -3 -6 -11 -8 -16 -4 -13 7 -8
-94 5 -115 6 -10 5 -12 -2 -7 -18 11 -15 -39 3 -54 8 -7 15 -17 15 -23 0 -6
-6 -2 -14 8 -12 17 -14 12 -15 -45 0 -37 5 -70 12 -79 10 -12 9 -13 -1 -7 -10
6 -13 -1 -10 -30 2 -26 7 -38 16 -36 8 1 11 -2 7 -8 -3 -6 -11 -8 -16 -4 -13
7 -8 -94 5 -115 6 -10 5 -12 -2 -7 -18 11 -15 -39 3 -54 8 -7 15 -17 15 -23 0
-6 -7 -2 -15 9 -13 18 -14 16 -12 -26 1 -25 6 -51 11 -59 6 -10 5 -12 -2 -7
-18 11 -15 -39 3 -54 8 -7 15 -17 15 -23 0 -6 -7 -2 -15 9 -13 18 -14 16 -12
-26 1 -25 6 -51 11 -59 6 -10 5 -12 -2 -7 -18 11 -15 -39 3 -54 8 -7 15 -17
15 -23 0 -6 -7 -2 -15 9 -13 18 -14 16 -12 -26 1 -25 6 -51 11 -59 6 -10 5
-12 -2 -7 -18 11 -15 -39 3 -54 8 -7 15 -17 15 -23 0 -6 -6 -2 -14 9 -13 17
-14 12 -13 -51 2 -52 5 -69 15 -67 8 1 11 -2 7 -8 -3 -6 -11 -8 -16 -4 -7 4
-9 -9 -7 -32 2 -26 7 -38 16 -36 8 1 11 -2 7 -8 -3 -6 -11 -8 -16 -4 -13 7 -8
-94 5 -115 6 -10 5 -12 -2 -7 -18 11 -15 -39 3 -54 8 -7 15 -17 15 -23 0 -6
-6 -2 -14 8 -12 17 -14 12 -15 -45 0 -37 5 -70 12 -79 10 -12 9 -13 -1 -7 -10
6 -13 -1 -10 -30 2 -26 7 -38 16 -36 8 1 11 -2 7 -8 -3 -6 -11 -8 -16 -4 -13
7 -8 -94 5 -115 6 -10 5 -12 -2 -7 -18 11 -15 -39 3 -54 8 -7 15 -17 15 -23 0
-6 -7 -2 -15 9 -13 18 -14 16 -12 -26 1 -25 6 -51 11 -59 6 -10 5 -12 -2 -7
-18 11 -15 -39 3 -54 8 -7 15 -17 15 -23 0 -6 -7 -2 -15 9 -13 18 -14 16 -12
-26 1 -25 6 -51 11 -59 6 -10 5 -12 -2 -7 -18 11 -15 -39 3 -54 8 -7 15 -17
15 -23 0 -6 -7 -2 -15 9 -13 18 -14 16 -12 -26 1 -25 6 -51 11 -59 6 -10 5
-12 -2 -7 -18 11 -15 -39 3 -54 8 -7 15 -17 15 -23 0 -6 -6 -2 -14 9 -13 17
-14 12 -13 -51 2 -52 5 -69 15 -67 8 1 11 -2 7 -8 -3 -6 -11 -8 -16 -4 -7 4
-9 -9 -7 -32 2 -26 7 -38 16 -36 8 1 11 -2 7 -8 -3 -6 -11 -8 -16 -4 -13 7 -8
-94 5 -115 6 -10 5 -12 -2 -7 -18 11 -15 -39 3 -54 8 -7 15 -17 15 -23 0 -6
-6 -2 -14 8 -12 17 -14 12 -15 -45 0 -37 5 -70 12 -79 10 -12 9 -13 -1 -7 -10
6 -13 -1 -10 -30 2 -26 7 -38 16 -36 8 1 11 -2 7 -8 -3 -6 -11 -8 -16 -4 -13
7 -8 -94 5 -115 6 -10 5 -12 -3 -7 -8 5 -10 -5 -7 -36 2 -25 8 -42 15 -41 6 2
11 -3 11 -11 0 -15 24 -16 37 -1 4 4 3 5 -4 1 -6 -3 -14 -3 -16 1 -3 5 60 8
140 8 79 0 140 -1 134 -3 -20 -7 -11 -20 9 -15 11 3 18 8 16 12 -2 3 12 6 32
7 21 1 31 -1 25 -3 -21 -8 -15 -22 7 -16 11 3 18 8 16 12 -2 3 83 6 191 6 107
0 189 -1 184 -3 -20 -7 -11 -20 9 -15 11 3 18 8 16 12 -2 3 12 7 31 7 22 1 30
-2 22 -7 -7 -4 -11 -10 -8 -14 7 -7 45 27 44 40 0 6 -4 16 -9 24 -6 10 -5 12
2 7 16 -10 16 36 0 53 -10 11 -10 13 0 7 8 -5 12 2 12 26 0 19 -6 40 -12 47
-7 8 -8 11 -2 8 15 -8 16 94 1 112 -7 9 -8 12 -1 8 15 -9 16 173 1 192 -8 10
-8 12 -1 8 15 -9 16 94 1 112 -7 9 -8 12 -1 8 15 -9 16 173 1 192 -8 10 -8 12
-1 8 15 -9 16 94 1 112 -7 9 -8 12 -1 8 15 -9 16 173 1 192 -8 10 -8 12 -1 8
15 -9 16 94 1 112 -7 9 -8 12 -1 8 15 -9 16 173 1 192 -8 10 -8 12 -1 8 15 -9
16 94 1 112 -7 9 -8 12 -1 8 15 -9 16 173 1 192 -8 10 -8 12 -1 8 15 -9 16 94
1 112 -7 9 -8 12 -1 8 15 -9 16 173 1 192 -8 10 -8 12 -1 8 15 -9 16 94 1 112
-7 9 -8 12 -1 8 15 -9 16 173 1 192 -8 10 -8 12 -1 8 15 -9 16 94 1 112 -7 9
-8 12 -1 8 15 -9 16 173 1 192 -8 10 -8 12 -1 8 15 -9 16 94 1 112 -7 9 -8 12
-1 8 15 -9 16 173 1 192 -8 10 -8 12 -1 8 15 -9 16 94 1 112 -7 9 -8 12 -1 8
15 -9 16 173 1 192 -8 10 -8 12 -1 8 15 -9 16 94 1 112 -7 9 -8 12 -1 8 15 -9
16 173 1 192 -8 10 -8 12 -1 8 15 -9 16 94 1 112 -7 9 -8 12 -1 8 15 -9 16
173 1 192 -8 10 -8 12 -1 8 15 -9 16 94 1 112 -7 9 -8 12 -1 8 15 -9 16 173 1
192 -8 10 -8 12 -1 8 15 -9 16 94 1 112 -7 9 -8 12 -1 8 15 -9 16 173 1 192
-9 11 -9 13 -1 8 8 -4 12 7 12 36 1 36 -2 43 -18 43 -11 0 -20 -5 -20 -11 0
-5 -4 -4 -9 3 -4 8 -12 14 -16 14 -4 0 -12 -6 -16 -14 -7 -11 -9 -11 -9 1 0
11 -3 11 -17 0 -11 -10 -14 -10 -9 -1 5 8 0 12 -16 12 -19 0 -20 -2 -8 -10 12
-8 10 -9 -7 -7 -12 2 -26 6 -29 10 -4 4 -14 7 -22 7 -12 0 -12 -3 -1 -17 13
-16 12 -17 -4 -4 -10 8 -38 16 -64 18 -42 3 -44 2 -32 -14 13 -16 12 -17 -3
-4 -10 7 -18 10 -18 5 0 -4 -5 -3 -12 4 -7 7 -18 12 -26 12 -12 0 -12 -3 -1
-17 13 -17 12 -17 -6 -2 -19 16 -35 17 -83 5 -13 -3 -20 -1 -17 5 4 5 1 9 -4
9 -6 0 -11 -6 -11 -12 0 -8 -3 -9 -8 -3 -11 16 -64 18 -73 3 -5 -7 -9 -8 -9
-2 0 5 -19 11 -42 13 -38 2 -40 1 -27 -16 13 -17 13 -17 -5 -3 -10 8 -30 16
-44 18 -23 3 -24 2 -11 -15 13 -16 12 -17 -3 -4 -10 7 -18 10 -18 5 0 -4 -5
-3 -12 4 -7 7 -18 12 -26 12 -12 0 -12 -3 -1 -17 13 -17 12 -17 -6 -3 -22 17
-43 19 -64 6 -10 -6 -12 -5 -7 2 9 15 1 15 -26 1 -15 -8 -19 -8 -14 0 4 6 2
11 -3 11 -6 0 -11 -6 -11 -12 0 -8 -3 -9 -8 -3 -11 15 -55 17 -64 3 -4 -7 -8
-8 -8 -3 0 16 -70 18 -70 3 0 -8 -3 -9 -8 -3 -4 6 -20 11 -37 13 -23 2 -27 1
-15 -8 12 -8 11 -9 -7 -7 -12 2 -26 6 -29 10 -4 4 -14 7 -22 7 -12 0 -12 -3
-1 -17 13 -17 13 -17 -5 -3 -10 8 -30 16 -44 18 -23 3 -24 2 -11 -15 12 -16
12 -17 -1 -7 -8 6 -25 10 -37 9 -12 -1 -20 2 -17 7 7 11 -3 10 -28 -3 -11 -6
-18 -7 -15 -2 4 5 0 10 -8 10 -8 0 -12 -4 -9 -9z"/>
<path d="M7914 6606 c0 -25 3 -43 6 -40 7 8 8 84 1 84 -4 0 -7 -20 -7 -44z"/>
<path d="M7915 6406 c0 -47 2 -82 5 -79 7 7 7 163 0 163 -3 0 -5 -38 -5 -84z"/>
<path d="M7915 5905 c0 -36 2 -65 5 -65 3 0 6 29 6 65 0 36 -3 65 -6 65 -3 0
-5 -29 -5 -65z"/>
<path d="M7913 5515 c0 -8 4 -12 9 -9 4 3 8 9 8 15 0 5 -4 9 -8 9 -5 0 -9 -7
-9 -15z"/>
<path d="M4140 3719 c0 -5 5 -7 10 -4 6 3 10 8 10 11 0 2 -4 4 -10 4 -5 0 -10
-5 -10 -11z"/>
<path d="M7915 3345 c0 -36 2 -65 5 -65 3 0 6 29 6 65 0 36 -3 65 -6 65 -3 0
-5 -29 -5 -65z"/>
<path d="M7915 3146 c0 -58 2 -102 5 -99 7 6 7 203 0 203 -3 0 -5 -47 -5 -104z"/>
<path d="M230 2739 c0 -5 5 -7 10 -4 6 3 10 8 10 11 0 2 -4 4 -10 4 -5 0 -10
-5 -10 -11z"/>
<path d="M270 2736 c7 -7 13 -7 20 0 6 6 3 10 -10 10 -13 0 -16 -4 -10 -10z"/>
<path d="M310 2738 c0 -4 4 -8 9 -8 6 0 12 4 15 8 3 5 -1 9 -9 9 -8 0 -15 -4
-15 -9z"/>
<path d="M350 2739 c0 -5 5 -7 10 -4 6 3 10 8 10 11 0 2 -4 4 -10 4 -5 0 -10
-5 -10 -11z"/>
<path d="M390 2736 c7 -7 13 -7 20 0 6 6 3 10 -10 10 -13 0 -16 -4 -10 -10z"/>
<path d="M430 2742 c0 -4 9 -8 20 -9 11 -1 20 2 20 5 0 4 -9 8 -20 9 -11 1
-20 -2 -20 -5z"/>
<path d="M625 2740 c-3 -6 1 -7 9 -4 18 7 21 14 7 14 -6 0 -13 -4 -16 -10z"/>
<path d="M670 2736 c7 -7 13 -7 20 0 6 6 3 10 -10 10 -13 0 -16 -4 -10 -10z"/>
<path d="M710 2742 c0 -4 9 -8 20 -9 11 -1 20 2 20 5 0 4 -9 8 -20 9 -11 1
-20 -2 -20 -5z"/>
<path d="M764 2738 c-3 -4 5 -5 17 -3 30 6 36 14 9 12 -12 -1 -24 -5 -26 -9z"/>
<path d="M830 2736 c7 -7 13 -7 20 0 6 6 3 10 -10 10 -13 0 -16 -4 -10 -10z"/>
<path d="M870 2738 c0 -4 4 -8 9 -8 6 0 12 4 15 8 3 5 -1 9 -9 9 -8 0 -15 -4
-15 -9z"/>
<path d="M910 2739 c0 -5 5 -7 10 -4 6 3 10 8 10 11 0 2 -4 4 -10 4 -5 0 -10
-5 -10 -11z"/>
<path d="M1830 2736 c7 -7 13 -7 20 0 6 6 3 10 -10 10 -13 0 -16 -4 -10 -10z"/>
<path d="M1870 2739 c0 -5 5 -7 10 -4 6 3 10 8 10 11 0 2 -4 4 -10 4 -5 0 -10
-5 -10 -11z"/>
<path d="M2065 2739 c-3 -4 2 -6 10 -5 21 3 28 13 10 13 -9 0 -18 -4 -20 -8z"/>
<path d="M2110 2738 c0 -4 4 -8 9 -8 6 0 12 4 15 8 3 5 -1 9 -9 9 -8 0 -15 -4
-15 -9z"/>
<path d="M2150 2739 c0 -5 5 -7 10 -4 6 3 10 8 10 11 0 2 -4 4 -10 4 -5 0 -10
-5 -10 -11z"/>
<path d="M2190 2736 c7 -7 13 -7 20 0 6 6 3 10 -10 10 -13 0 -16 -4 -10 -10z"/>
<path d="M2230 2738 c0 -4 4 -8 9 -8 6 0 12 4 15 8 3 5 -1 9 -9 9 -8 0 -15 -4
-15 -9z"/>
<path d="M2270 2739 c0 -5 5 -7 10 -4 6 3 10 8 10 11 0 2 -4 4 -10 4 -5 0 -10
-5 -10 -11z"/>
<path d="M2310 2736 c7 -7 13 -7 20 0 6 6 3 10 -10 10 -13 0 -16 -4 -10 -10z"/>
<path d="M2350 2742 c0 -4 9 -8 20 -9 11 -1 20 2 20 5 0 4 -9 8 -20 9 -11 1
-20 -2 -20 -5z"/>
<path d="M2705 2739 c-3 -4 2 -6 10 -5 21 3 28 13 10 13 -9 0 -18 -4 -20 -8z"/>
<path d="M2750 2738 c0 -4 4 -8 9 -8 6 0 12 4 15 8 3 5 -1 9 -9 9 -8 0 -15 -4
-15 -9z"/>
<path d="M2790 2739 c0 -5 5 -7 10 -4 6 3 10 8 10 11 0 2 -4 4 -10 4 -5 0 -10
-5 -10 -11z"/>
<path d="M2830 2736 c7 -7 13 -7 20 0 6 6 3 10 -10 10 -13 0 -16 -4 -10 -10z"/>
<path d="M2870 2738 c0 -4 4 -8 9 -8 6 0 12 4 15 8 3 5 -1 9 -9 9 -8 0 -15 -4
-15 -9z"/>
<path d="M2910 2739 c0 -5 5 -7 10 -4 6 3 10 8 10 11 0 2 -4 4 -10 4 -5 0 -10
-5 -10 -11z"/>
<path d="M2950 2736 c7 -7 13 -7 20 0 6 6 3 10 -10 10 -13 0 -16 -4 -10 -10z"/>
<path d="M2990 2742 c0 -4 9 -8 20 -9 11 -1 20 2 20 5 0 4 -9 8 -20 9 -11 1
-20 -2 -20 -5z"/>
<path d="M5105 2739 c-3 -4 2 -6 10 -5 21 3 28 13 10 13 -9 0 -18 -4 -20 -8z"/>
<path d="M5150 2738 c0 -4 4 -8 9 -8 6 0 12 4 15 8 3 5 -1 9 -9 9 -8 0 -15 -4
-15 -9z"/>
<path d="M5190 2739 c0 -5 5 -7 10 -4 6 3 10 8 10 11 0 2 -4 4 -10 4 -5 0 -10
-5 -10 -11z"/>
<path d="M5230 2736 c7 -7 13 -7 20 0 6 6 3 10 -10 10 -13 0 -16 -4 -10 -10z"/>
<path d="M5270 2738 c0 -4 4 -8 9 -8 6 0 12 4 15 8 3 5 -1 9 -9 9 -8 0 -15 -4
-15 -9z"/>
<path d="M5310 2739 c0 -5 5 -7 10 -4 6 3 10 8 10 11 0 2 -4 4 -10 4 -5 0 -10
-5 -10 -11z"/>
<path d="M5350 2736 c7 -7 13 -7 20 0 6 6 3 10 -10 10 -13 0 -16 -4 -10 -10z"/>
<path d="M5390 2742 c0 -4 9 -8 20 -9 11 -1 20 2 20 5 0 4 -9 8 -20 9 -11 1
-20 -2 -20 -5z"/>
<path d="M5470 2738 c0 -4 4 -8 9 -8 6 0 12 4 15 8 3 5 -1 9 -9 9 -8 0 -15 -4
-15 -9z"/>
<path d="M5510 2739 c0 -5 5 -7 10 -4 6 3 10 8 10 11 0 2 -4 4 -10 4 -5 0 -10
-5 -10 -11z"/>
<path d="M5550 2736 c7 -7 13 -7 20 0 6 6 3 10 -10 10 -13 0 -16 -4 -10 -10z"/>
<path d="M5590 2738 c0 -4 4 -8 9 -8 6 0 12 4 15 8 3 5 -1 9 -9 9 -8 0 -15 -4
-15 -9z"/>
<path d="M5630 2739 c0 -5 5 -7 10 -4 6 3 10 8 10 11 0 2 -4 4 -10 4 -5 0 -10
-5 -10 -11z"/>
<path d="M5670 2736 c7 -7 13 -7 20 0 6 6 3 10 -10 10 -13 0 -16 -4 -10 -10z"/>
<path d="M5710 2742 c0 -4 9 -8 20 -9 11 -1 20 2 20 5 0 4 -9 8 -20 9 -11 1
-20 -2 -20 -5z"/>
<path d="M5790 2738 c0 -4 4 -8 9 -8 6 0 12 4 15 8 3 5 -1 9 -9 9 -8 0 -15 -4
-15 -9z"/>
<path d="M5830 2739 c0 -5 5 -7 10 -4 6 3 10 8 10 11 0 2 -4 4 -10 4 -5 0 -10
-5 -10 -11z"/>
<path d="M5870 2736 c7 -7 13 -7 20 0 6 6 3 10 -10 10 -13 0 -16 -4 -10 -10z"/>
<path d="M5910 2738 c0 -4 4 -8 9 -8 6 0 12 4 15 8 3 5 -1 9 -9 9 -8 0 -15 -4
-15 -9z"/>
<path d="M5950 2739 c0 -5 5 -7 10 -4 6 3 10 8 10 11 0 2 -4 4 -10 4 -5 0 -10
-5 -10 -11z"/>
<path d="M5990 2736 c7 -7 13 -7 20 0 6 6 3 10 -10 10 -13 0 -16 -4 -10 -10z"/>
<path d="M6030 2742 c0 -4 9 -8 20 -9 11 -1 20 2 20 5 0 4 -9 8 -20 9 -11 1
-20 -2 -20 -5z"/>
<path d="M6110 2738 c0 -4 4 -8 9 -8 6 0 12 4 15 8 3 5 -1 9 -9 9 -8 0 -15 -4
-15 -9z"/>
<path d="M6150 2739 c0 -5 5 -7 10 -4 6 3 10 8 10 11 0 2 -4 4 -10 4 -5 0 -10
-5 -10 -11z"/>
<path d="M6190 2736 c7 -7 13 -7 20 0 6 6 3 10 -10 10 -13 0 -16 -4 -10 -10z"/>
<path d="M6230 2738 c0 -4 4 -8 9 -8 6 0 12 4 15 8 3 5 -1 9 -9 9 -8 0 -15 -4
-15 -9z"/>
<path d="M6270 2739 c0 -5 5 -7 10 -4 6 3 10 8 10 11 0 2 -4 4 -10 4 -5 0 -10
-5 -10 -11z"/>
<path d="M6310 2736 c7 -7 13 -7 20 0 6 6 3 10 -10 10 -13 0 -16 -4 -10 -10z"/>
<path d="M6350 2742 c0 -4 9 -8 20 -9 11 -1 20 2 20 5 0 4 -9 8 -20 9 -11 1
-20 -2 -20 -5z"/>
<path d="M6430 2738 c0 -4 4 -8 9 -8 6 0 12 4 15 8 3 5 -1 9 -9 9 -8 0 -15 -4
-15 -9z"/>
<path d="M6470 2739 c0 -5 5 -7 10 -4 6 3 10 8 10 11 0 2 -4 4 -10 4 -5 0 -10
-5 -10 -11z"/>
<path d="M6510 2736 c7 -7 13 -7 20 0 6 6 3 10 -10 10 -13 0 -16 -4 -10 -10z"/>
<path d="M6550 2738 c0 -4 4 -8 9 -8 6 0 12 4 15 8 3 5 -1 9 -9 9 -8 0 -15 -4
-15 -9z"/>
<path d="M6590 2739 c0 -5 5 -7 10 -4 6 3 10 8 10 11 0 2 -4 4 -10 4 -5 0 -10
-5 -10 -11z"/>
<path d="M6630 2736 c7 -7 13 -7 20 0 6 6 3 10 -10 10 -13 0 -16 -4 -10 -10z"/>
<path d="M6670 2742 c0 -4 9 -8 20 -9 11 -1 20 2 20 5 0 4 -9 8 -20 9 -11 1
-20 -2 -20 -5z"/>
<path d="M6750 2738 c0 -4 4 -8 9 -8 6 0 12 4 15 8 3 5 -1 9 -9 9 -8 0 -15 -4
-15 -9z"/>
<path d="M6790 2739 c0 -5 5 -7 10 -4 6 3 10 8 10 11 0 2 -4 4 -10 4 -5 0 -10
-5 -10 -11z"/>
<path d="M6830 2736 c7 -7 13 -7 20 0 6 6 3 10 -10 10 -13 0 -16 -4 -10 -10z"/>
<path d="M6870 2738 c0 -4 4 -8 9 -8 6 0 12 4 15 8 3 5 -1 9 -9 9 -8 0 -15 -4
-15 -9z"/>
<path d="M6910 2739 c0 -5 5 -7 10 -4 6 3 10 8 10 11 0 2 -4 4 -10 4 -5 0 -10
-5 -10 -11z"/>
<path d="M6950 2736 c7 -7 13 -7 20 0 6 6 3 10 -10 10 -13 0 -16 -4 -10 -10z"/>
<path d="M6990 2742 c0 -4 9 -8 20 -9 11 -1 20 2 20 5 0 4 -9 8 -20 9 -11 1
-20 -2 -20 -5z"/>
<path d="M7070 2738 c0 -4 4 -8 9 -8 6 0 12 4 15 8 3 5 -1 9 -9 9 -8 0 -15 -4
-15 -9z"/>
<path d="M7110 2739 c0 -5 5 -7 10 -4 6 3 10 8 10 11 0 2 -4 4 -10 4 -5 0 -10
-5 -10 -11z"/>
<path d="M7150 2736 c7 -7 13 -7 20 0 6 6 3 10 -10 10 -13 0 -16 -4 -10 -10z"/>
<path d="M7190 2738 c0 -4 4 -8 9 -8 6 0 12 4 15 8 3 5 -1 9 -9 9 -8 0 -15 -4
-15 -9z"/>
<path d="M7230 2739 c0 -5 5 -7 10 -4 6 3 10 8 10 11 0 2 -4 4 -10 4 -5 0 -10
-5 -10 -11z"/>
<path d="M7270 2736 c7 -7 13 -7 20 0 6 6 3 10 -10 10 -13 0 -16 -4 -10 -10z"/>
<path d="M7310 2742 c0 -4 9 -8 20 -9 11 -1 20 2 20 5 0 4 -9 8 -20 9 -11 1
-20 -2 -20 -5z"/>
<path d="M7390 2738 c0 -4 4 -8 9 -8 6 0 12 4 15 8 3 5 -1 9 -9 9 -8 0 -15 -4
-15 -9z"/>
<path d="M7430 2739 c0 -5 5 -7 10 -4 6 3 10 8 10 11 0 2 -4 4 -10 4 -5 0 -10
-5 -10 -11z"/>
<path d="M7470 2736 c7 -7 13 -7 20 0 6 6 3 10 -10 10 -13 0 -16 -4 -10 -10z"/>
<path d="M7510 2738 c0 -4 4 -8 9 -8 6 0 12 4 15 8 3 5 -1 9 -9 9 -8 0 -15 -4
-15 -9z"/>
<path d="M7550 2739 c0 -5 5 -7 10 -4 6 3 10 8 10 11 0 2 -4 4 -10 4 -5 0 -10
-5 -10 -11z"/>
<path d="M7590 2736 c7 -7 13 -7 20 0 6 6 3 10 -10 10 -13 0 -16 -4 -10 -10z"/>
<path d="M7630 2742 c0 -4 9 -8 20 -9 11 -1 20 2 20 5 0 4 -9 8 -20 9 -11 1
-20 -2 -20 -5z"/>
<path d="M7710 2736 c7 -7 13 -7 20 0 6 6 3 10 -10 10 -13 0 -16 -4 -10 -10z"/>
<path d="M7750 2738 c0 -4 4 -8 9 -8 6 0 12 4 15 8 3 5 -1 9 -9 9 -8 0 -15 -4
-15 -9z"/>
<path d="M7790 2739 c0 -5 5 -7 10 -4 6 3 10 8 10 11 0 2 -4 4 -10 4 -5 0 -10
-5 -10 -11z"/>
<path d="M7850 2738 c0 -4 4 -8 9 -8 6 0 12 4 15 8 3 5 -1 9 -9 9 -8 0 -15 -4
-15 -9z"/>
<path d="M9230 2736 c7 -7 13 -7 20 0 6 6 3 10 -10 10 -13 0 -16 -4 -10 -10z"/>
<path d="M9270 2738 c0 -4 4 -8 9 -8 6 0 12 4 15 8 3 5 -1 9 -9 9 -8 0 -15 -4
-15 -9z"/>
<path d="M9310 2739 c0 -5 5 -7 10 -4 6 3 10 8 10 11 0 2 -4 4 -10 4 -5 0 -10
-5 -10 -11z"/>
<path d="M9350 2736 c7 -7 13 -7 20 0 6 6 3 10 -10 10 -13 0 -16 -4 -10 -10z"/>
<path d="M9390 2742 c0 -4 9 -8 20 -9 11 -1 20 2 20 5 0 4 -9 8 -20 9 -11 1
-20 -2 -20 -5z"/>
<path d="M9585 2740 c-3 -6 1 -7 9 -4 18 7 21 14 7 14 -6 0 -13 -4 -16 -10z"/>
<path d="M9630 2736 c7 -7 13 -7 20 0 6 6 3 10 -10 10 -13 0 -16 -4 -10 -10z"/>
<path d="M9670 2742 c0 -4 9 -8 20 -9 11 -1 20 2 20 5 0 4 -9 8 -20 9 -11 1
-20 -2 -20 -5z"/>
<path d="M9724 2738 c-3 -4 5 -5 17 -3 30 6 36 14 9 12 -12 -1 -24 -5 -26 -9z"/>
<path d="M9790 2736 c7 -7 13 -7 20 0 6 6 3 10 -10 10 -13 0 -16 -4 -10 -10z"/>
<path d="M9830 2738 c0 -4 4 -8 9 -8 6 0 12 4 15 8 3 5 -1 9 -9 9 -8 0 -15 -4
-15 -9z"/>
<path d="M9870 2739 c0 -5 5 -7 10 -4 6 3 10 8 10 11 0 2 -4 4 -10 4 -5 0 -10
-5 -10 -11z"/>
</g>
</svg>
