<?xml version="1.0" encoding="utf-8"?>
<!-- Generator: Adobe Illustrator 23.0.3, SVG Export Plug-In . SVG Version: 6.00 Build 0)  -->
<svg version="1.1" id="Layer_1" xmlns="http://www.w3.org/2000/svg" xmlns:xlink="http://www.w3.org/1999/xlink" x="0px" y="0px"
	 viewBox="0 0 265 265" style="enable-background:new 0 0 265 265;" xml:space="preserve">
<style type="text/css">
	.st0{fill:#0D0802;}
	.st1{clip-path:url(#SVGID_2_);fill:none;stroke:#FFFFFF;stroke-width:1.4686;}
	.st2{fill:#FFFFFF;}
	.st3{fill:none;stroke:#0D0802;stroke-width:0.2636;}
	.st4{fill:#E84A26;}
	.st5{clip-path:url(#SVGID_4_);fill:url(#SVGID_5_);}
	.st6{clip-path:url(#SVGID_7_);fill:url(#SVGID_8_);}
	.st7{clip-path:url(#SVGID_10_);fill:url(#SVGID_11_);}
	.st8{clip-path:url(#SVGID_13_);fill:url(#SVGID_14_);}
	.st9{clip-path:url(#SVGID_16_);fill:url(#SVGID_17_);}
	.st10{clip-path:url(#SVGID_19_);fill:url(#SVGID_20_);}
	.st11{clip-path:url(#SVGID_22_);fill:url(#SVGID_23_);}
	.st12{clip-path:url(#SVGID_25_);fill:url(#SVGID_26_);}
	.st13{clip-path:url(#SVGID_28_);fill:url(#SVGID_29_);}
	.st14{clip-path:url(#SVGID_31_);fill:url(#SVGID_32_);}
	.st15{clip-path:url(#SVGID_34_);fill:url(#SVGID_35_);}
	.st16{clip-path:url(#SVGID_37_);fill:url(#SVGID_38_);}
	.st17{clip-path:url(#SVGID_40_);fill:url(#SVGID_41_);}
	.st18{clip-path:url(#SVGID_43_);fill:url(#SVGID_44_);}
	.st19{clip-path:url(#SVGID_46_);fill:url(#SVGID_47_);}
	.st20{clip-path:url(#SVGID_49_);fill:url(#SVGID_50_);}
	.st21{clip-path:url(#SVGID_52_);fill:url(#SVGID_53_);}
	.st22{clip-path:url(#SVGID_55_);fill:url(#SVGID_56_);}
	.st23{clip-path:url(#SVGID_58_);fill:url(#SVGID_59_);}
	.st24{clip-path:url(#SVGID_61_);fill:url(#SVGID_62_);}
	.st25{clip-path:url(#SVGID_64_);fill:url(#SVGID_65_);}
	.st26{clip-path:url(#SVGID_67_);fill:url(#SVGID_68_);}
	.st27{clip-path:url(#SVGID_70_);fill:url(#SVGID_71_);}
	.st28{clip-path:url(#SVGID_73_);fill:#D3B16D;}
	.st29{fill:#D32229;}
	.st30{fill:#231F20;}
	.st31{fill:#928042;}
	.st32{fill:#595857;}
	.st33{clip-path:url(#SVGID_75_);fill:none;stroke:#FFFFFF;stroke-width:1.2317;}
	.st34{fill:none;stroke:#0D0802;stroke-width:0.2211;}
	.st35{fill:#122D52;}
	.st36{fill:none;stroke:#FFFFFF;stroke-width:0.6158;}
	.st37{fill-rule:evenodd;clip-rule:evenodd;fill:#FFFFFF;}
	.st38{clip-path:url(#SVGID_77_);fill:none;stroke:#FFFFFF;stroke-width:1.2317;}
	.st39{clip-path:url(#SVGID_79_);fill:none;stroke:#FFFFFF;stroke-width:1.2317;}
	.st40{fill:#DB404C;}
	.st41{fill:#003682;}
	.st42{clip-path:url(#SVGID_85_);}
</style>
<g>
	<g>
		<defs>
			<path id="SVGID_3_" d="M146.28,154.43l-6.17,15.19l4.04,0l4.57-11.39h42.35l4.66,11.4h4.06l-6.18-15.2H146.28z M169.93,104.37
				l10.14,26.61h-20.28L169.93,104.37z M169.4,95.92l-15.21,38.86h31.47l-15.21-38.86H169.4z"/>
		</defs>
		<clipPath id="SVGID_2_">
			<use xlink:href="#SVGID_3_"  style="overflow:visible;"/>
		</clipPath>
		
			<linearGradient id="SVGID_4_" gradientUnits="userSpaceOnUse" x1="4012.0906" y1="2727.5449" x2="4012.5342" y2="2727.5449" gradientTransform="matrix(115.6444 99.4699 99.4699 -115.6444 -735123 -83531.3516)">
			<stop  offset="0" style="stop-color:#E6C972"/>
			<stop  offset="0.1543" style="stop-color:#E3C36D"/>
			<stop  offset="0.361" style="stop-color:#D9B260"/>
			<stop  offset="0.5976" style="stop-color:#CA9649"/>
			<stop  offset="0.8543" style="stop-color:#B46F2A"/>
			<stop  offset="1" style="stop-color:#A65616"/>
		</linearGradient>
		<polygon style="clip-path:url(#SVGID_2_);fill:url(#SVGID_4_);" points="165.47,66.42 236.2,127.26 174.4,199.12 103.67,138.28 		
			"/>
	</g>
	<g>
		<defs>
			<path id="SVGID_6_" d="M83.69,95.38v23.65h3.82c0.07-2.76,0.63-5.34,1.7-7.74c1.06-2.4,2.51-4.51,4.35-6.31
				c1.84-1.8,3.97-3.22,6.42-4.24c2.44-1.02,5.03-1.54,7.79-1.54h3.18c4.59,0,8.91,0.87,12.94,2.6c4.03,1.73,7.56,4.12,10.6,7.16
				c3.04,3.04,5.42,6.58,7.16,10.61c1.73,4.03,2.6,8.34,2.6,12.94c0,4.6-0.86,8.91-2.6,12.94c-1.74,4.03-4.12,7.57-7.16,10.6
				c-3.04,3.04-6.58,5.43-10.6,7.16c-4.03,1.73-8.35,2.6-12.94,2.6H87.93v-11.47h-3.82v15.28h26.83c5.02,0,9.83-0.95,14.42-2.86
				c4.45-1.91,8.38-4.56,11.77-7.95c3.39-3.54,6.04-7.49,7.95-11.88c1.98-4.74,2.97-9.54,2.97-14.42c0-4.88-0.99-9.68-2.97-14.42
				c-1.91-4.45-4.56-8.38-7.95-11.77c-3.4-3.46-7.32-6.11-11.77-7.96c-4.45-1.98-9.26-2.97-14.42-2.97H83.69z"/>
		</defs>
		<clipPath id="SVGID_5_">
			<use xlink:href="#SVGID_6_"  style="overflow:visible;"/>
		</clipPath>
		
			<linearGradient id="SVGID_7_" gradientUnits="userSpaceOnUse" x1="4012.0906" y1="2727.8542" x2="4012.5342" y2="2727.8542" gradientTransform="matrix(115.6457 99.471 99.471 -115.6457 -735184.625 -83469.9219)">
			<stop  offset="0" style="stop-color:#E6C972"/>
			<stop  offset="0.1543" style="stop-color:#E3C36D"/>
			<stop  offset="0.361" style="stop-color:#D9B260"/>
			<stop  offset="0.5976" style="stop-color:#CA9649"/>
			<stop  offset="0.8543" style="stop-color:#B46F2A"/>
			<stop  offset="1" style="stop-color:#A65616"/>
		</linearGradient>
		<polygon style="clip-path:url(#SVGID_5_);fill:url(#SVGID_7_);" points="111.06,63.56 184.76,126.95 120.69,201.44 46.99,138.05 
					"/>
	</g>
	<g>
		<defs>
			<polygon id="SVGID_9_" points="50.53,95.38 50.53,99.21 62.4,99.21 62.4,165.65 50.53,165.65 50.53,169.49 78.08,169.49 
				78.08,165.65 66.2,165.65 66.2,99.21 78.08,99.21 78.08,95.38 			"/>
		</defs>
		<clipPath id="SVGID_8_">
			<use xlink:href="#SVGID_9_"  style="overflow:visible;"/>
		</clipPath>
		
			<linearGradient id="SVGID_10_" gradientUnits="userSpaceOnUse" x1="4012.0908" y1="2727.9561" x2="4012.5344" y2="2727.9561" gradientTransform="matrix(115.6466 99.4718 99.4718 -115.6466 -735222.75 -83433.3984)">
			<stop  offset="0" style="stop-color:#E6C972"/>
			<stop  offset="0.1543" style="stop-color:#E3C36D"/>
			<stop  offset="0.361" style="stop-color:#D9B260"/>
			<stop  offset="0.5976" style="stop-color:#CA9649"/>
			<stop  offset="0.8543" style="stop-color:#B46F2A"/>
			<stop  offset="1" style="stop-color:#A65616"/>
		</linearGradient>
		<polygon style="clip-path:url(#SVGID_8_);fill:url(#SVGID_10_);" points="62.24,81.75 114.72,126.89 66.36,183.11 13.88,137.97 		
			"/>
	</g>
	<g>
		<defs>
			<rect id="SVGID_12_" x="84.29" y="130.21" width="1.7" height="7.72"/>
		</defs>
		<clipPath id="SVGID_11_">
			<use xlink:href="#SVGID_12_"  style="overflow:visible;"/>
		</clipPath>
		
			<linearGradient id="SVGID_13_" gradientUnits="userSpaceOnUse" x1="4012.0928" y1="2727.3584" x2="4012.5366" y2="2727.3584" gradientTransform="matrix(115.6535 99.4778 99.4778 -115.6535 -735199.4375 -83517.0859)">
			<stop  offset="0" style="stop-color:#E6C972"/>
			<stop  offset="0.1543" style="stop-color:#E3C36D"/>
			<stop  offset="0.361" style="stop-color:#D9B260"/>
			<stop  offset="0.5976" style="stop-color:#CA9649"/>
			<stop  offset="0.8543" style="stop-color:#B46F2A"/>
			<stop  offset="1" style="stop-color:#A65616"/>
		</linearGradient>
		<polygon style="clip-path:url(#SVGID_11_);fill:url(#SVGID_13_);" points="85.01,129.37 89.8,133.49 85.26,138.77 80.47,134.65 		
			"/>
	</g>
	<g>
		<defs>
			<polygon id="SVGID_15_" points="93.1,130.21 93.1,134.96 89.48,130.21 87.92,130.21 87.92,137.93 89.59,137.93 89.59,133.02 
				93.33,137.93 94.77,137.93 94.77,130.21 			"/>
		</defs>
		<clipPath id="SVGID_14_">
			<use xlink:href="#SVGID_15_"  style="overflow:visible;"/>
		</clipPath>
		
			<linearGradient id="SVGID_16_" gradientUnits="userSpaceOnUse" x1="4012.0889" y1="2727.3494" x2="4012.5327" y2="2727.3494" gradientTransform="matrix(115.639 99.4652 99.4652 -115.639 -735103 -83510.2969)">
			<stop  offset="0" style="stop-color:#E6C972"/>
			<stop  offset="0.1543" style="stop-color:#E3C36D"/>
			<stop  offset="0.361" style="stop-color:#D9B260"/>
			<stop  offset="0.5976" style="stop-color:#CA9649"/>
			<stop  offset="0.8543" style="stop-color:#B46F2A"/>
			<stop  offset="1" style="stop-color:#A65616"/>
		</linearGradient>
		<polygon style="clip-path:url(#SVGID_14_);fill:url(#SVGID_16_);" points="90.83,126.82 98.59,133.49 91.86,141.32 84.1,134.65 		
			"/>
	</g>
	<g>
		<defs>
			<polygon id="SVGID_18_" points="96.08,130.21 96.08,131.78 98.42,131.78 98.42,137.93 100.13,137.93 100.13,131.78 
				102.47,131.78 102.47,130.21 			"/>
		</defs>
		<clipPath id="SVGID_17_">
			<use xlink:href="#SVGID_18_"  style="overflow:visible;"/>
		</clipPath>
		
			<linearGradient id="SVGID_19_" gradientUnits="userSpaceOnUse" x1="4012.0901" y1="2727.2825" x2="4012.5339" y2="2727.2825" gradientTransform="matrix(115.6434 99.4691 99.4691 -115.6434 -735121.3125 -83525.2969)">
			<stop  offset="0" style="stop-color:#E6C972"/>
			<stop  offset="0.1543" style="stop-color:#E3C36D"/>
			<stop  offset="0.361" style="stop-color:#D9B260"/>
			<stop  offset="0.5976" style="stop-color:#CA9649"/>
			<stop  offset="0.8543" style="stop-color:#B46F2A"/>
			<stop  offset="1" style="stop-color:#A65616"/>
		</linearGradient>
		<polygon style="clip-path:url(#SVGID_17_);fill:url(#SVGID_19_);" points="98.8,127.05 106.29,133.49 99.75,141.09 92.26,134.65 
					"/>
	</g>
	<g>
		<defs>
			<polygon id="SVGID_21_" points="103.78,130.21 103.78,137.93 109.65,137.93 109.65,136.42 105.46,136.42 105.46,134.8 
				109.1,134.8 109.1,133.29 105.46,133.29 105.46,131.72 109.6,131.72 109.6,130.21 			"/>
		</defs>
		<clipPath id="SVGID_20_">
			<use xlink:href="#SVGID_21_"  style="overflow:visible;"/>
		</clipPath>
		
			<linearGradient id="SVGID_22_" gradientUnits="userSpaceOnUse" x1="4012.0884" y1="2727.2625" x2="4012.532" y2="2727.2625" gradientTransform="matrix(115.6363 99.4629 99.4629 -115.6363 -735070.4375 -83525.9297)">
			<stop  offset="0" style="stop-color:#E6C972"/>
			<stop  offset="0.1543" style="stop-color:#E3C36D"/>
			<stop  offset="0.361" style="stop-color:#D9B260"/>
			<stop  offset="0.5976" style="stop-color:#CA9649"/>
			<stop  offset="0.8543" style="stop-color:#B46F2A"/>
			<stop  offset="1" style="stop-color:#A65616"/>
		</linearGradient>
		<polygon style="clip-path:url(#SVGID_20_);fill:url(#SVGID_22_);" points="106.28,127.3 113.47,133.49 107.15,140.83 
			99.96,134.65 		"/>
	</g>
	<g>
		<defs>
			<path id="SVGID_24_" d="M112.86,131.74h1.69c0.82,0,1.33,0.37,1.33,1.1v0.02c0,0.65-0.47,1.09-1.3,1.09h-1.72V131.74z
				 M111.16,130.21v7.72h1.7v-2.47h1.33l1.65,2.47h1.98l-1.89-2.75c0.98-0.37,1.66-1.15,1.66-2.39v-0.02c0-0.73-0.23-1.34-0.66-1.77
				c-0.51-0.51-1.27-0.78-2.25-0.78H111.16z"/>
		</defs>
		<clipPath id="SVGID_23_">
			<use xlink:href="#SVGID_24_"  style="overflow:visible;"/>
		</clipPath>
		
			<linearGradient id="SVGID_25_" gradientUnits="userSpaceOnUse" x1="4012.0898" y1="2727.2249" x2="4012.5334" y2="2727.2249" gradientTransform="matrix(115.642 99.4678 99.4678 -115.642 -735099.8125 -83538.4062)">
			<stop  offset="0" style="stop-color:#E6C972"/>
			<stop  offset="0.1543" style="stop-color:#E3C36D"/>
			<stop  offset="0.361" style="stop-color:#D9B260"/>
			<stop  offset="0.5976" style="stop-color:#CA9649"/>
			<stop  offset="0.8543" style="stop-color:#B46F2A"/>
			<stop  offset="1" style="stop-color:#A65616"/>
		</linearGradient>
		<polygon style="clip-path:url(#SVGID_23_);fill:url(#SVGID_25_);" points="114,126.91 121.65,133.49 115,141.23 107.35,134.65 		
			"/>
	</g>
	<g>
		<defs>
			<rect id="SVGID_27_" x="119.22" y="130.21" width="1.7" height="7.72"/>
		</defs>
		<clipPath id="SVGID_26_">
			<use xlink:href="#SVGID_27_"  style="overflow:visible;"/>
		</clipPath>
		
			<linearGradient id="SVGID_28_" gradientUnits="userSpaceOnUse" x1="4012.0916" y1="2727.1714" x2="4012.5352" y2="2727.1714" gradientTransform="matrix(115.6481 99.4731 99.4731 -115.6481 -735131.4375 -83551.9688)">
			<stop  offset="0" style="stop-color:#E6C972"/>
			<stop  offset="0.1543" style="stop-color:#E3C36D"/>
			<stop  offset="0.361" style="stop-color:#D9B260"/>
			<stop  offset="0.5976" style="stop-color:#CA9649"/>
			<stop  offset="0.8543" style="stop-color:#B46F2A"/>
			<stop  offset="1" style="stop-color:#A65616"/>
		</linearGradient>
		<polygon style="clip-path:url(#SVGID_26_);fill:url(#SVGID_28_);" points="119.94,129.37 124.73,133.49 120.19,138.77 
			115.4,134.65 		"/>
	</g>
	<g>
		<defs>
			<path id="SVGID_30_" d="M124.28,134.07v-0.02c0-1.32,0.95-2.4,2.32-2.4c1.37,0,2.34,1.1,2.34,2.43v0.02c0,1.33-0.95,2.4-2.32,2.4
				C125.25,136.49,124.28,135.39,124.28,134.07 M122.5,134.07v0.02c0,2.2,1.71,3.97,4.09,3.97c2.38,0,4.11-1.8,4.11-3.99v-0.02
				c0-2.19-1.71-3.97-4.09-3.97C124.24,130.08,122.5,131.87,122.5,134.07"/>
		</defs>
		<clipPath id="SVGID_29_">
			<use xlink:href="#SVGID_30_"  style="overflow:visible;"/>
		</clipPath>
		
			<linearGradient id="SVGID_31_" gradientUnits="userSpaceOnUse" x1="4012.0942" y1="2727.1531" x2="4012.5378" y2="2727.1531" gradientTransform="matrix(115.6578 99.4814 99.4814 -115.6578 -735188.25 -83564.5312)">
			<stop  offset="0" style="stop-color:#E6C972"/>
			<stop  offset="0.1543" style="stop-color:#E3C36D"/>
			<stop  offset="0.361" style="stop-color:#D9B260"/>
			<stop  offset="0.5976" style="stop-color:#CA9649"/>
			<stop  offset="0.8543" style="stop-color:#B46F2A"/>
			<stop  offset="1" style="stop-color:#A65616"/>
		</linearGradient>
		<polygon style="clip-path:url(#SVGID_29_);fill:url(#SVGID_31_);" points="125.99,126.02 134.65,133.47 127.22,142.12 
			118.56,134.67 		"/>
	</g>
	<g>
		<defs>
			<path id="SVGID_33_" d="M133.92,131.74h1.69c0.83,0,1.34,0.37,1.34,1.1v0.02c0,0.65-0.48,1.09-1.3,1.09h-1.72V131.74z
				 M132.22,130.21v7.72h1.7v-2.47h1.33l1.65,2.47h1.98l-1.88-2.75c0.98-0.37,1.65-1.15,1.65-2.39v-0.02c0-0.73-0.23-1.34-0.66-1.77
				c-0.51-0.51-1.27-0.78-2.25-0.78H132.22z"/>
		</defs>
		<clipPath id="SVGID_32_">
			<use xlink:href="#SVGID_33_"  style="overflow:visible;"/>
		</clipPath>
		
			<linearGradient id="SVGID_34_" gradientUnits="userSpaceOnUse" x1="4012.0906" y1="2727.1121" x2="4012.5342" y2="2727.1121" gradientTransform="matrix(115.6439 99.4695 99.4695 -115.6439 -735092.0625 -83563.3047)">
			<stop  offset="0" style="stop-color:#E6C972"/>
			<stop  offset="0.1543" style="stop-color:#E3C36D"/>
			<stop  offset="0.361" style="stop-color:#D9B260"/>
			<stop  offset="0.5976" style="stop-color:#CA9649"/>
			<stop  offset="0.8543" style="stop-color:#B46F2A"/>
			<stop  offset="1" style="stop-color:#A65616"/>
		</linearGradient>
		<polygon style="clip-path:url(#SVGID_32_);fill:url(#SVGID_34_);" points="135.06,126.91 142.71,133.49 136.05,141.22 
			128.41,134.65 		"/>
	</g>
	<g>
		<defs>
			<path id="SVGID_36_" d="M85.91,142.77h1.31c1.39,0,2.33,0.96,2.33,2.33v0.02c0,1.37-0.94,2.3-2.33,2.3h-1.31V142.77z
				 M84.21,141.24v7.72h3.01c2.43,0,4.1-1.69,4.1-3.86v-0.02c0-2.17-1.68-3.84-4.1-3.84H84.21z"/>
		</defs>
		<clipPath id="SVGID_35_">
			<use xlink:href="#SVGID_36_"  style="overflow:visible;"/>
		</clipPath>
		
			<linearGradient id="SVGID_37_" gradientUnits="userSpaceOnUse" x1="4012.0896" y1="2727.4387" x2="4012.5334" y2="2727.4387" gradientTransform="matrix(115.642 99.4678 99.4678 -115.642 -735137.875 -83494.0703)">
			<stop  offset="0" style="stop-color:#E6C972"/>
			<stop  offset="0.1543" style="stop-color:#E3C36D"/>
			<stop  offset="0.361" style="stop-color:#D9B260"/>
			<stop  offset="0.5976" style="stop-color:#CA9649"/>
			<stop  offset="0.8543" style="stop-color:#B46F2A"/>
			<stop  offset="1" style="stop-color:#A65616"/>
		</linearGradient>
		<polygon style="clip-path:url(#SVGID_35_);fill:url(#SVGID_37_);" points="87.23,137.72 95.14,144.52 88.3,152.48 80.39,145.68 		
			"/>
	</g>
	<g>
		<defs>
			<polygon id="SVGID_39_" points="92.83,141.24 92.83,148.96 98.71,148.96 98.71,147.45 94.52,147.45 94.52,145.83 98.16,145.83 
				98.16,144.32 94.52,144.32 94.52,142.75 98.65,142.75 98.65,141.24 			"/>
		</defs>
		<clipPath id="SVGID_38_">
			<use xlink:href="#SVGID_39_"  style="overflow:visible;"/>
		</clipPath>
		
			<linearGradient id="SVGID_40_" gradientUnits="userSpaceOnUse" x1="4012.0935" y1="2727.3906" x2="4012.5371" y2="2727.3906" gradientTransform="matrix(115.656 99.4799 99.4799 -115.656 -735219.3125 -83514.1406)">
			<stop  offset="0" style="stop-color:#E6C972"/>
			<stop  offset="0.1543" style="stop-color:#E3C36D"/>
			<stop  offset="0.361" style="stop-color:#D9B260"/>
			<stop  offset="0.5976" style="stop-color:#CA9649"/>
			<stop  offset="0.8543" style="stop-color:#B46F2A"/>
			<stop  offset="1" style="stop-color:#A65616"/>
		</linearGradient>
		<polygon style="clip-path:url(#SVGID_38_);fill:url(#SVGID_40_);" points="95.33,138.33 102.53,144.52 96.21,151.86 89.02,145.68 
					"/>
	</g>
	<g>
		<defs>
			<path id="SVGID_42_" d="M100,143.46v0.02c0,1.53,1,1.96,2.56,2.36c1.29,0.33,1.56,0.55,1.56,0.98v0.02
				c0,0.45-0.42,0.73-1.12,0.73c-0.88,0-1.61-0.36-2.3-0.94l-1,1.2c0.93,0.83,2.11,1.24,3.28,1.24c1.66,0,2.83-0.86,2.83-2.39v-0.02
				c0-1.35-0.88-1.91-2.45-2.32c-1.33-0.34-1.66-0.51-1.66-1.01v-0.02c0-0.38,0.34-0.67,0.99-0.67c0.65,0,1.32,0.29,2.01,0.76
				l0.88-1.28c-0.78-0.63-1.74-0.98-2.86-0.98C101.13,141.13,100,142.06,100,143.46"/>
		</defs>
		<clipPath id="SVGID_41_">
			<use xlink:href="#SVGID_42_"  style="overflow:visible;"/>
		</clipPath>
		
			<linearGradient id="SVGID_43_" gradientUnits="userSpaceOnUse" x1="4012.0886" y1="2727.3413" x2="4012.5322" y2="2727.3413" gradientTransform="matrix(115.6375 99.464 99.464 -115.6375 -735093.3125 -83509.4219)">
			<stop  offset="0" style="stop-color:#E6C972"/>
			<stop  offset="0.1543" style="stop-color:#E3C36D"/>
			<stop  offset="0.361" style="stop-color:#D9B260"/>
			<stop  offset="0.5976" style="stop-color:#CA9649"/>
			<stop  offset="0.8543" style="stop-color:#B46F2A"/>
			<stop  offset="1" style="stop-color:#A65616"/>
		</linearGradient>
		<polygon style="clip-path:url(#SVGID_41_);fill:url(#SVGID_43_);" points="102.29,138.11 109.73,144.51 103.21,152.09 
			95.77,145.69 		"/>
	</g>
	<g>
		<defs>
			<rect id="SVGID_45_" x="107.36" y="141.24" width="1.7" height="7.72"/>
		</defs>
		<clipPath id="SVGID_44_">
			<use xlink:href="#SVGID_45_"  style="overflow:visible;"/>
		</clipPath>
		
			<linearGradient id="SVGID_46_" gradientUnits="userSpaceOnUse" x1="4012.094" y1="2727.304" x2="4012.5376" y2="2727.304" gradientTransform="matrix(115.6578 99.4814 99.4814 -115.6578 -735216.5625 -83531.6172)">
			<stop  offset="0" style="stop-color:#E6C972"/>
			<stop  offset="0.1543" style="stop-color:#E3C36D"/>
			<stop  offset="0.361" style="stop-color:#D9B260"/>
			<stop  offset="0.5976" style="stop-color:#CA9649"/>
			<stop  offset="0.8543" style="stop-color:#B46F2A"/>
			<stop  offset="1" style="stop-color:#A65616"/>
		</linearGradient>
		<polygon style="clip-path:url(#SVGID_44_);fill:url(#SVGID_46_);" points="108.08,140.4 112.88,144.52 108.34,149.8 
			103.54,145.68 		"/>
	</g>
	<g>
		<defs>
			<path id="SVGID_48_" d="M110.65,145.1v0.02c0,2.28,1.65,3.97,4.06,3.97c1.41,0,2.5-0.55,3.3-1.22v-3.35h-3.35v1.47h1.71v1.1
				c-0.43,0.31-0.98,0.46-1.6,0.46c-1.37,0-2.34-1.04-2.34-2.45v-0.02c0-1.31,0.98-2.4,2.22-2.4c0.89,0,1.42,0.29,2.02,0.78
				l1.07-1.29c-0.8-0.68-1.64-1.06-3.03-1.06C112.36,141.11,110.65,142.9,110.65,145.1"/>
		</defs>
		<clipPath id="SVGID_47_">
			<use xlink:href="#SVGID_48_"  style="overflow:visible;"/>
		</clipPath>
		
			<linearGradient id="SVGID_49_" gradientUnits="userSpaceOnUse" x1="4012.0903" y1="2727.2834" x2="4012.5339" y2="2727.2834" gradientTransform="matrix(115.6439 99.4695 99.4695 -115.6439 -735123.5625 -83526.6328)">
			<stop  offset="0" style="stop-color:#E6C972"/>
			<stop  offset="0.1543" style="stop-color:#E3C36D"/>
			<stop  offset="0.361" style="stop-color:#D9B260"/>
			<stop  offset="0.5976" style="stop-color:#CA9649"/>
			<stop  offset="0.8543" style="stop-color:#B46F2A"/>
			<stop  offset="1" style="stop-color:#A65616"/>
		</linearGradient>
		<polygon style="clip-path:url(#SVGID_47_);fill:url(#SVGID_49_);" points="113.77,137.47 121.95,144.5 114.87,152.73 
			106.7,145.69 		"/>
	</g>
	<g>
		<defs>
			<polygon id="SVGID_51_" points="124.82,141.24 124.82,145.99 121.2,141.24 119.64,141.24 119.64,148.96 121.31,148.96 
				121.31,144.05 125.05,148.96 126.49,148.96 126.49,141.24 			"/>
		</defs>
		<clipPath id="SVGID_50_">
			<use xlink:href="#SVGID_51_"  style="overflow:visible;"/>
		</clipPath>
		
			<linearGradient id="SVGID_52_" gradientUnits="userSpaceOnUse" x1="4012.0933" y1="2727.2493" x2="4012.5371" y2="2727.2493" gradientTransform="matrix(115.655 99.479 99.479 -115.655 -735187.4375 -83543.25)">
			<stop  offset="0" style="stop-color:#E6C972"/>
			<stop  offset="0.1543" style="stop-color:#E3C36D"/>
			<stop  offset="0.361" style="stop-color:#D9B260"/>
			<stop  offset="0.5976" style="stop-color:#CA9649"/>
			<stop  offset="0.8543" style="stop-color:#B46F2A"/>
			<stop  offset="1" style="stop-color:#A65616"/>
		</linearGradient>
		<polygon style="clip-path:url(#SVGID_50_);fill:url(#SVGID_52_);" points="122.55,137.85 130.31,144.52 123.58,152.35 
			115.82,145.68 		"/>
	</g>
	<g>
		<defs>
			<path id="SVGID_54_" d="M152.6,144.01l0.87,2.13h-1.75L152.6,144.01z M151.95,142.28l-2.82,6.62h1.47l0.6-1.47h2.78l0.6,1.47
				h1.51l-2.82-6.62H151.95z"/>
		</defs>
		<clipPath id="SVGID_53_">
			<use xlink:href="#SVGID_54_"  style="overflow:visible;"/>
		</clipPath>
		
			<linearGradient id="SVGID_55_" gradientUnits="userSpaceOnUse" x1="4012.092" y1="2727.0881" x2="4012.5356" y2="2727.0881" gradientTransform="matrix(115.6494 99.4742 99.4742 -115.6494 -735122.875 -83571.9688)">
			<stop  offset="0" style="stop-color:#E6C972"/>
			<stop  offset="0.1543" style="stop-color:#E3C36D"/>
			<stop  offset="0.361" style="stop-color:#D9B260"/>
			<stop  offset="0.5976" style="stop-color:#CA9649"/>
			<stop  offset="0.8543" style="stop-color:#B46F2A"/>
			<stop  offset="1" style="stop-color:#A65616"/>
		</linearGradient>
		<polygon style="clip-path:url(#SVGID_53_);fill:url(#SVGID_55_);" points="152.1,138.83 159.38,145.09 153.14,152.34 
			145.86,146.08 		"/>
	</g>
	<g>
		<defs>
			<polygon id="SVGID_57_" points="159.87,142.31 158.4,146.78 157.04,142.33 155.49,142.33 157.73,148.95 158.99,148.95 
				160.47,144.64 161.96,148.95 163.22,148.95 165.46,142.33 163.95,142.33 162.59,146.78 161.11,142.31 			"/>
		</defs>
		<clipPath id="SVGID_56_">
			<use xlink:href="#SVGID_57_"  style="overflow:visible;"/>
		</clipPath>
		
			<linearGradient id="SVGID_58_" gradientUnits="userSpaceOnUse" x1="4012.0884" y1="2727.0388" x2="4012.532" y2="2727.0388" gradientTransform="matrix(115.636 99.4627 99.4627 -115.636 -735029.5625 -83571.5703)">
			<stop  offset="0" style="stop-color:#E6C972"/>
			<stop  offset="0.1543" style="stop-color:#E3C36D"/>
			<stop  offset="0.361" style="stop-color:#D9B260"/>
			<stop  offset="0.5976" style="stop-color:#CA9649"/>
			<stop  offset="0.8543" style="stop-color:#B46F2A"/>
			<stop  offset="1" style="stop-color:#A65616"/>
		</linearGradient>
		<polygon style="clip-path:url(#SVGID_56_);fill:url(#SVGID_58_);" points="159.73,137.37 168.75,145.13 161.22,153.88 
			152.21,146.12 		"/>
	</g>
	<g>
		<defs>
			<path id="SVGID_60_" d="M168.31,144.01l0.87,2.13h-1.75L168.31,144.01z M167.66,142.28l-2.82,6.62h1.47l0.6-1.47h2.78l0.6,1.47
				h1.52l-2.82-6.62H167.66z"/>
		</defs>
		<clipPath id="SVGID_59_">
			<use xlink:href="#SVGID_60_"  style="overflow:visible;"/>
		</clipPath>
		
			<linearGradient id="SVGID_61_" gradientUnits="userSpaceOnUse" x1="4012.0962" y1="2727.0049" x2="4012.5398" y2="2727.0049" gradientTransform="matrix(115.6646 99.4873 99.4873 -115.6646 -735205.5625 -83600.875)">
			<stop  offset="0" style="stop-color:#E6C972"/>
			<stop  offset="0.1543" style="stop-color:#E3C36D"/>
			<stop  offset="0.361" style="stop-color:#D9B260"/>
			<stop  offset="0.5976" style="stop-color:#CA9649"/>
			<stop  offset="0.8543" style="stop-color:#B46F2A"/>
			<stop  offset="1" style="stop-color:#A65616"/>
		</linearGradient>
		<polygon style="clip-path:url(#SVGID_59_);fill:url(#SVGID_61_);" points="167.81,138.83 175.09,145.09 168.85,152.34 
			161.57,146.08 		"/>
	</g>
	<g>
		<defs>
			<path id="SVGID_63_" d="M174,143.63h1.44c0.7,0,1.13,0.32,1.13,0.94v0.02c0,0.55-0.4,0.93-1.11,0.93H174V143.63z M172.55,142.33
				v6.57H174v-2.1h1.13l1.41,2.1h1.69l-1.6-2.35c0.83-0.31,1.41-0.98,1.41-2.04v-0.02c0-0.62-0.2-1.14-0.56-1.5
				c-0.43-0.43-1.08-0.67-1.92-0.67H172.55z"/>
		</defs>
		<clipPath id="SVGID_62_">
			<use xlink:href="#SVGID_63_"  style="overflow:visible;"/>
		</clipPath>
		
			<linearGradient id="SVGID_64_" gradientUnits="userSpaceOnUse" x1="4012.0867" y1="2726.9592" x2="4012.5305" y2="2726.9592" gradientTransform="matrix(115.6299 99.4574 99.4574 -115.6299 -734975.875 -83583.5312)">
			<stop  offset="0" style="stop-color:#E6C972"/>
			<stop  offset="0.1543" style="stop-color:#E3C36D"/>
			<stop  offset="0.361" style="stop-color:#D9B260"/>
			<stop  offset="0.5976" style="stop-color:#CA9649"/>
			<stop  offset="0.8543" style="stop-color:#B46F2A"/>
			<stop  offset="1" style="stop-color:#A65616"/>
		</linearGradient>
		<polygon style="clip-path:url(#SVGID_62_);fill:url(#SVGID_64_);" points="174.97,139.52 181.48,145.12 175.82,151.71 
			169.3,146.1 		"/>
	</g>
	<g>
		<defs>
			<path id="SVGID_66_" d="M180.51,143.63h1.11c1.19,0,1.98,0.82,1.98,1.98v0.02c0,1.16-0.8,1.96-1.98,1.96h-1.11V143.63z
				 M179.06,142.33v6.57h2.56c2.07,0,3.5-1.44,3.5-3.29v-0.02c0-1.85-1.43-3.27-3.5-3.27H179.06z"/>
		</defs>
		<clipPath id="SVGID_65_">
			<use xlink:href="#SVGID_66_"  style="overflow:visible;"/>
		</clipPath>
		
			<linearGradient id="SVGID_67_" gradientUnits="userSpaceOnUse" x1="4012.0859" y1="2726.925" x2="4012.5295" y2="2726.925" gradientTransform="matrix(115.6264 99.4544 99.4544 -115.6264 -734947.75 -83588.2344)">
			<stop  offset="0" style="stop-color:#E6C972"/>
			<stop  offset="0.1543" style="stop-color:#E3C36D"/>
			<stop  offset="0.361" style="stop-color:#D9B260"/>
			<stop  offset="0.5976" style="stop-color:#CA9649"/>
			<stop  offset="0.8543" style="stop-color:#B46F2A"/>
			<stop  offset="1" style="stop-color:#A65616"/>
		</linearGradient>
		<polygon style="clip-path:url(#SVGID_65_);fill:url(#SVGID_67_);" points="181.64,139.33 188.37,145.12 182.54,151.89 
			175.81,146.1 		"/>
	</g>
	<g>
		<defs>
			<path id="SVGID_69_" d="M185.84,144.21v0.02c0,1.31,0.86,1.67,2.18,2.01c1.1,0.28,1.32,0.47,1.32,0.84v0.02
				c0,0.38-0.36,0.62-0.95,0.62c-0.75,0-1.37-0.31-1.96-0.8l-0.86,1.03c0.79,0.7,1.79,1.05,2.79,1.05c1.42,0,2.42-0.73,2.42-2.04
				v-0.02c0-1.14-0.75-1.62-2.09-1.97c-1.14-0.29-1.42-0.43-1.42-0.86v-0.02c0-0.32,0.29-0.57,0.85-0.57c0.56,0,1.13,0.25,1.71,0.65
				l0.75-1.09c-0.67-0.54-1.48-0.83-2.44-0.83C186.8,142.23,185.84,143.02,185.84,144.21"/>
		</defs>
		<clipPath id="SVGID_68_">
			<use xlink:href="#SVGID_69_"  style="overflow:visible;"/>
		</clipPath>
		
			<linearGradient id="SVGID_70_" gradientUnits="userSpaceOnUse" x1="4012.0918" y1="2726.8789" x2="4012.5354" y2="2726.8789" gradientTransform="matrix(115.6479 99.4729 99.4729 -115.6479 -735077.5625 -83612.7109)">
			<stop  offset="0" style="stop-color:#E6C972"/>
			<stop  offset="0.1543" style="stop-color:#E3C36D"/>
			<stop  offset="0.361" style="stop-color:#D9B260"/>
			<stop  offset="0.5976" style="stop-color:#CA9649"/>
			<stop  offset="0.8543" style="stop-color:#B46F2A"/>
			<stop  offset="1" style="stop-color:#A65616"/>
		</linearGradient>
		<polygon style="clip-path:url(#SVGID_68_);fill:url(#SVGID_70_);" points="187.8,139.66 194.13,145.11 188.57,151.57 
			182.24,146.12 		"/>
	</g>
	<g>
		<defs>
			<rect id="SVGID_72_" x="50.53" y="95.38" width="163.95" height="74.25"/>
		</defs>
		<clipPath id="SVGID_71_">
			<use xlink:href="#SVGID_72_"  style="overflow:visible;"/>
		</clipPath>
		<path style="clip-path:url(#SVGID_71_);fill:#D3B16D;" d="M205.19,99.78c0-2.37,1.35-4.04,4.42-4.04c2.9,0,4.22,1.54,4.22,3.59
			c0,3.93-5.47,3.77-6.78,6.36h6.78v1.48h-8.85c0.32-5.23,7.15-4.59,7.15-7.85c0-1.62-1.11-2.22-2.41-2.22
			c-2.01,0-2.86,1.11-2.91,2.69H205.19z"/>
		<path style="clip-path:url(#SVGID_71_);fill:#D3B16D;" d="M209.82,117.69c-2.75,0-2.95,3.15-2.95,4.49s0.19,4.49,2.95,4.49
			c2.75,0,2.95-3.15,2.95-4.49S212.58,117.69,209.82,117.69 M209.82,116.34c3.54,0,4.65,2.64,4.65,5.84s-1.11,5.84-4.65,5.84
			s-4.65-2.64-4.65-5.84S206.28,116.34,209.82,116.34"/>
		<path style="clip-path:url(#SVGID_71_);fill:#D3B16D;" d="M209.45,140.24h-3.36v-1.25h0.39c2.86,0,3.28-1.35,3.35-2.11h1.34v11.49
			h-1.71V140.24z"/>
		<path style="clip-path:url(#SVGID_71_);fill:#D3B16D;" d="M209.61,158.9c-1.95,0-2.82,1.14-2.82,2.51c0,1.37,0.87,2.51,2.82,2.51
			c1.96,0,2.83-1.14,2.83-2.51C212.45,160.04,211.58,158.9,209.61,158.9 M207.09,166.33c0.18,1.03,1.14,1.54,2.24,1.54
			c1.85,0,3.2-0.76,3.4-4.09h-0.03c-0.44,0.74-1.66,1.48-3.28,1.48c-1.95,0-4.31-0.9-4.31-3.83c0-1.69,1.22-3.9,4.46-3.9
			c3.41,0,4.78,2.09,4.78,5.62c0,5.86-3.54,6.07-5.09,6.07c-1.35,0-3.46-0.56-3.77-2.9H207.09z"/>
	</g>
</g>
</svg>
