<?xml version="1.0" encoding="utf-8"?>
<!-- Generator: Adobe Illustrator 23.0.3, SVG Export Plug-In . SVG Version: 6.00 Build 0)  -->
<svg version="1.1" id="Layer_1" xmlns="http://www.w3.org/2000/svg" xmlns:xlink="http://www.w3.org/1999/xlink" x="0px" y="0px"
	 viewBox="0 0 265 265" style="enable-background:new 0 0 265 265;" xml:space="preserve">
<style type="text/css">
	.st0{fill:#0D0802;}
	.st1{clip-path:url(#SVGID_2_);fill:none;stroke:#FFFFFF;stroke-width:1.4686;}
	.st2{fill:#FFFFFF;}
	.st3{fill:none;stroke:#0D0802;stroke-width:0.2636;}
	.st4{fill:#E84A26;}
	.st5{clip-path:url(#SVGID_4_);fill:url(#SVGID_5_);}
	.st6{clip-path:url(#SVGID_7_);fill:url(#SVGID_8_);}
	.st7{clip-path:url(#SVGID_10_);fill:url(#SVGID_11_);}
	.st8{clip-path:url(#SVGID_13_);fill:url(#SVGID_14_);}
	.st9{clip-path:url(#SVGID_16_);fill:url(#SVGID_17_);}
	.st10{clip-path:url(#SVGID_19_);fill:url(#SVGID_20_);}
	.st11{clip-path:url(#SVGID_22_);fill:url(#SVGID_23_);}
	.st12{clip-path:url(#SVGID_25_);fill:url(#SVGID_26_);}
	.st13{clip-path:url(#SVGID_28_);fill:url(#SVGID_29_);}
	.st14{clip-path:url(#SVGID_31_);fill:url(#SVGID_32_);}
	.st15{clip-path:url(#SVGID_34_);fill:url(#SVGID_35_);}
	.st16{clip-path:url(#SVGID_37_);fill:url(#SVGID_38_);}
	.st17{clip-path:url(#SVGID_40_);fill:url(#SVGID_41_);}
	.st18{clip-path:url(#SVGID_43_);fill:url(#SVGID_44_);}
	.st19{clip-path:url(#SVGID_46_);fill:url(#SVGID_47_);}
	.st20{clip-path:url(#SVGID_49_);fill:url(#SVGID_50_);}
	.st21{clip-path:url(#SVGID_52_);fill:url(#SVGID_53_);}
	.st22{clip-path:url(#SVGID_55_);fill:url(#SVGID_56_);}
	.st23{clip-path:url(#SVGID_58_);fill:url(#SVGID_59_);}
	.st24{clip-path:url(#SVGID_61_);fill:url(#SVGID_62_);}
	.st25{clip-path:url(#SVGID_64_);fill:url(#SVGID_65_);}
	.st26{clip-path:url(#SVGID_67_);fill:url(#SVGID_68_);}
	.st27{clip-path:url(#SVGID_70_);fill:url(#SVGID_71_);}
	.st28{clip-path:url(#SVGID_73_);fill:#D3B16D;}
	.st29{fill:#D32229;}
	.st30{fill:#231F20;}
	.st31{fill:#928042;}
	.st32{fill:#595857;}
	.st33{clip-path:url(#SVGID_75_);fill:none;stroke:#FFFFFF;stroke-width:1.2317;}
	.st34{fill:none;stroke:#0D0802;stroke-width:0.2211;}
	.st35{fill:#122D52;}
	.st36{fill:none;stroke:#FFFFFF;stroke-width:0.6158;}
	.st37{fill-rule:evenodd;clip-rule:evenodd;fill:#FFFFFF;}
	.st38{clip-path:url(#SVGID_77_);fill:none;stroke:#FFFFFF;stroke-width:1.2317;}
	.st39{clip-path:url(#SVGID_79_);fill:none;stroke:#FFFFFF;stroke-width:1.2317;}
	.st40{fill:#DB404C;}
	.st41{fill:#003682;}
	.st42{clip-path:url(#SVGID_85_);}
</style>
<g>
	<path class="st29" d="M87.7,95.48l44.8-44.79C107.76,50.69,87.7,70.74,87.7,95.48"/>
	<path class="st29" d="M132.5,140.28l-44.8-44.8C87.7,120.22,107.76,140.28,132.5,140.28"/>
	<path class="st29" d="M110.1,95.48l22.4,22.4l22.4-22.4l-5.6-5.6l-11.2,11.2l-11.2-11.2l22.4-22.4l28,28
		c0-24.74-20.07-44.79-44.8-44.79l11.2,11.19L110.1,95.48"/>
	<path class="st29" d="M132.5,140.28c24.74,0,44.8-20.06,44.8-44.8L132.5,140.28"/>
	<path class="st30" d="M62.3,206.79l2.04-8.7l2.03,8.7H62.3 M61.93,193.77l-5.02,20.08h3.74l0.88-3.79h5.6l0.89,3.79h3.73
		l-5.01-20.08H61.93z M101.06,206.79l2.03-8.7l2.04,8.7H101.06z M100.69,193.77l-5.01,20.08h3.73l0.88-3.79h5.6l0.89,3.79h3.73
		l-5.01-20.08H100.69z M120.67,202.9l-2.49-0.01v-5.81l2.49,0c2.01,0,2.77,1.01,2.77,2.91C123.45,201.88,122.69,202.9,120.67,202.9
		 M127.2,199.98c0-4.01-2.21-6.22-6.35-6.22h-6.4v20.08h3.73v-7.65h2.49l2.96,7.65h4.02l-3.36-8.35
		C126.2,204.56,127.2,202.68,127.2,199.98 M140.36,208.56c-0.33,0.9-0.99,1.91-3.24,1.91l-1.54-0.01v-13.3l1.54-0.01
		c2.25,0,2.91,1.01,3.24,1.91c0.34,0.92,0.35,2.03,0.35,4.75C140.71,206.52,140.7,207.63,140.36,208.56 M143.38,196.87
		c-0.93-2.04-2.93-3.11-6.08-3.11h-5.34v20.08h5.34c3.15,0,5.15-1.06,6.08-3.11c0.77-1.68,0.96-2.96,0.96-6.94
		C144.34,199.84,144.15,198.56,143.38,196.87 M87.82,207.44l-2.15-13.67h-3.92l-2.14,13.67l-2.41-13.67h-3.58l3.83,20.08h4.07
		l2.19-13.97l1.97,13.97h4.11l4.01-20.08h-3.6L87.82,207.44z M179.03,208.84c-0.21,1.36-1.04,1.96-2.33,1.96
		c-1.29,0-2.12-0.61-2.33-1.96c-0.11-0.67-0.11-2.4-0.11-5.04c0-2.63,0-4.37,0.11-5.03c0.2-1.37,1.04-1.96,2.33-1.96
		c1.29,0,2.12,0.6,2.33,1.96c0.1,0.66,0.11,2.4,0.11,5.03C179.13,206.44,179.12,208.17,179.03,208.84 M176.7,193.31
		c-4.08,0-5.52,2.49-5.89,4.87c-0.17,1.16-0.17,3.07-0.17,5.62c0,2.56,0,4.47,0.17,5.62c0.36,2.38,1.81,4.87,5.89,4.87
		c4.08,0,5.52-2.49,5.89-4.87c0.17-1.15,0.17-3.06,0.17-5.62c0-2.55,0.01-4.47-0.17-5.62C182.22,195.81,180.77,193.31,176.7,193.31
		 M166.72,198.81c0-4.06-3.26-5.55-5.96-5.5c-2.69,0.06-5.79,1.61-5.79,6.43h3.53c0-2.12,0.93-3,2.29-3.06
		c1.39-0.06,2.34,0.79,2.34,2.26c0,1.89-2.09,4.13-8,11.65v3.29h11.29v-3.39h-6.83c2.59-3.31,4.66-5.91,5.96-7.96
		C166.35,201.25,166.72,200.02,166.72,198.81 M186.75,196.53v2.73h2.52v14.62h3.61v-20.11h-2.89
		C189.7,195.5,188.6,196.31,186.75,196.53 M210.35,206.59c-0.2-1.34-0.96-2.62-2.45-3.4c1.23-0.87,1.85-2.16,2.03-3.37
		c0.09-0.56,0.09-1.31,0-1.87c-0.36-2.38-1.96-4.64-5.69-4.64c-3.73,0-5.32,2.26-5.69,4.64c-0.08,0.56-0.08,1.31,0,1.87
		c0.19,1.22,0.81,2.51,2.03,3.37c-1.48,0.79-2.24,2.07-2.44,3.4c-0.14,0.91-0.14,1.93,0,2.84c0.36,2.38,2.02,4.87,6.1,4.87
		c4.08,0,5.74-2.49,6.1-4.87C210.49,208.53,210.49,207.5,210.35,206.59 M202.13,198.64c0.17-1.15,0.83-1.96,2.12-1.96
		c1.29,0,1.95,0.81,2.13,1.96v0.96c-0.21,1.36-0.89,2.07-2.13,2.07c-1.24,0-1.92-0.71-2.12-2.07V198.64z M206.79,208.85
		c-0.19,1.29-1.16,2.09-2.54,2.09c-1.38,0-2.35-0.8-2.54-2.09c-0.08-0.51-0.08-1.26,0-1.77c0.21-1.36,1.25-2.14,2.54-2.14
		c1.29,0,2.34,0.78,2.54,2.14C206.87,207.59,206.87,208.34,206.79,208.85 M111.51,176.7c-0.33,0.91-0.99,1.91-3.24,1.91l-1.54-0.01
		v-13.29l1.54-0.01c2.25,0,2.91,1.01,3.24,1.91c0.33,0.92,0.34,2.03,0.34,4.75C111.85,174.66,111.84,175.78,111.51,176.7
		 M108.44,161.91h-5.34v20.08h5.34c3.15,0,5.15-1.07,6.08-3.1c0.77-1.68,0.96-2.96,0.96-6.93c0-3.97-0.19-5.25-0.96-6.94
		C113.59,162.98,111.59,161.91,108.44,161.91 M94.36,177.2c-0.21,1.36-1.28,1.96-2.61,1.96c-1.33,0-2.4-0.6-2.61-1.96
		c-0.1-0.67-0.11-2.62-0.11-5.25c0-2.64,0.01-4.58,0.11-5.25c0.21-1.36,1.29-1.96,2.61-1.96c1.33,0,2.4,0.6,2.61,1.96
		c0.1,0.67,0.11,2.61,0.11,5.25C94.48,174.59,94.47,176.53,94.36,177.2 M91.75,161.24c-4.2,0-5.91,2.5-6.28,4.87
		c-0.18,1.15-0.18,3.28-0.18,5.84c0,2.56,0,4.69,0.18,5.84c0.37,2.38,2.08,4.87,6.28,4.87c4.2,0,5.91-2.49,6.28-4.87
		c0.18-1.15,0.18-3.28,0.18-5.84c0-2.56,0-4.69-0.18-5.84C97.66,163.74,95.96,161.24,91.75,161.24 M76.84,177.21
		c-0.21,1.36-1.28,1.96-2.61,1.96c-1.33,0-2.4-0.6-2.61-1.96c-0.1-0.67-0.11-2.61-0.11-5.25c0-2.63,0.01-4.58,0.11-5.24
		c0.21-1.36,1.29-1.97,2.61-1.97c1.33,0,2.4,0.6,2.61,1.97c0.11,0.66,0.11,2.61,0.11,5.24C76.96,174.6,76.95,176.54,76.84,177.21
		 M74.23,161.25c-4.2,0-5.91,2.49-6.28,4.87c-0.18,1.15-0.18,3.28-0.18,5.84c0,2.56,0,4.69,0.18,5.84c0.37,2.38,2.08,4.87,6.28,4.87
		c4.21,0,5.91-2.49,6.29-4.87c0.18-1.15,0.17-3.28,0.17-5.84c0-2.56,0.01-4.68-0.17-5.84C80.14,163.75,78.44,161.25,74.23,161.25
		 M56.92,174.44h2.54c-0.01,1.31,0,2.32-0.07,2.77c-0.22,1.43-1.1,1.96-2.48,1.96c-1.33,0-2.32-0.6-2.53-1.96
		c-0.11-0.67-0.11-2.61-0.11-5.25c0-2.63,0-4.58,0.11-5.24c0.21-1.36,1.12-1.97,2.46-1.97c1.3,0,2.2,0.66,2.41,1.97
		c0.04,0.28,0.07,1.01,0.09,1.64h3.63c0.01-0.74-0.05-1.73-0.12-2.24c-0.36-2.31-1.82-4.87-5.96-4.87c-4.2,0-5.81,2.49-6.18,4.87
		c-0.17,1.15-0.17,3.28-0.17,5.84c0,2.56,0,4.69,0.17,5.84c0.38,2.4,2.17,4.87,5.9,4.87c1.81,0,3.09-0.7,3.98-2.03l0.51,1.37h1.94
		v-10.74h-6.1V174.44z M190.54,174.44h2.54c-0.01,1.31,0,2.32-0.07,2.77c-0.22,1.43-1.1,1.96-2.48,1.96c-1.33,0-2.32-0.6-2.53-1.96
		c-0.1-0.67-0.11-2.61-0.11-5.25c0-2.64,0.01-4.59,0.11-5.25c0.21-1.36,1.12-1.97,2.45-1.97c1.3,0,2.2,0.66,2.41,1.97
		c0.05,0.28,0.08,1.01,0.1,1.64h3.63c0.01-0.74-0.05-1.73-0.13-2.24c-0.36-2.31-1.82-4.87-5.96-4.87c-4.2,0-5.8,2.49-6.17,4.87
		c-0.18,1.15-0.18,3.28-0.18,5.84c0,2.56-0.01,4.68,0.18,5.84c0.37,2.4,2.17,4.87,5.89,4.87c1.8,0,3.09-0.7,3.98-2.03l0.51,1.37
		h1.94v-10.74h-6.11V174.44z M147.17,173.57h6.07v-3.39h-6.07v-4.87h6.87v-3.39h-10.5v20.08h10.72v-3.39h-7.1V173.57z
		 M175.41,181.99h3.73v-20.08h-3.73V181.99z M210.97,161.91v12.73l-4.99-12.73h-4.25v20.08h3.5v-13.78l5.52,13.78h3.72v-20.08
		H210.97z M134.82,176.7c-0.33,0.91-0.99,1.91-3.23,1.91l-1.54-0.01V165.3l1.54-0.01c2.25,0,2.9,1.01,3.23,1.91
		c0.33,0.93,0.35,2.04,0.35,4.75C135.17,174.67,135.15,175.78,134.82,176.7 M131.75,161.91h-5.34v20.08h5.34
		c3.15,0,5.15-1.07,6.08-3.1c0.77-1.69,0.96-2.96,0.96-6.94c0-3.97-0.19-5.25-0.96-6.94C136.91,162.98,134.9,161.91,131.75,161.91
		 M162.08,166.77c0-1.42,1.09-2.16,2.43-2.16c1.31,0,2.53,0.79,2.55,2.76h3.5c-0.05-4.45-3.13-6.12-6.05-6.12
		c-3.07,0-6.1,1.89-6.1,5.53c0,5.82,8.7,6.02,8.7,10.09c0,1.52-1.15,2.37-2.68,2.37c-1.54,0-2.85-1.07-3.01-3.12h-3.57
		c0.14,4.61,3.46,6.55,6.58,6.55c3.1,0,6.35-1.65,6.35-5.8C170.78,170.62,162.08,170.24,162.08,166.77"/>
</g>
</svg>
