<?xml version="1.0" encoding="utf-8"?>
<!-- Generator: Adobe Illustrator 23.0.3, SVG Export Plug-In . SVG Version: 6.00 Build 0)  -->
<svg version="1.1" id="Layer_1" xmlns="http://www.w3.org/2000/svg" xmlns:xlink="http://www.w3.org/1999/xlink" x="0px" y="0px"
	 viewBox="0 0 265 265" style="enable-background:new 0 0 265 265;" xml:space="preserve">
<style type="text/css">
	.st0{fill:#0D0802;}
	.st1{clip-path:url(#SVGID_2_);fill:none;stroke:#FFFFFF;stroke-width:1.4686;}
	.st2{fill:#FFFFFF;}
	.st3{fill:none;stroke:#0D0802;stroke-width:0.2636;}
	.st4{fill:#E84A26;}
	.st5{clip-path:url(#SVGID_4_);fill:url(#SVGID_5_);}
	.st6{clip-path:url(#SVGID_7_);fill:url(#SVGID_8_);}
	.st7{clip-path:url(#SVGID_10_);fill:url(#SVGID_11_);}
	.st8{clip-path:url(#SVGID_13_);fill:url(#SVGID_14_);}
	.st9{clip-path:url(#SVGID_16_);fill:url(#SVGID_17_);}
	.st10{clip-path:url(#SVGID_19_);fill:url(#SVGID_20_);}
	.st11{clip-path:url(#SVGID_22_);fill:url(#SVGID_23_);}
	.st12{clip-path:url(#SVGID_25_);fill:url(#SVGID_26_);}
	.st13{clip-path:url(#SVGID_28_);fill:url(#SVGID_29_);}
	.st14{clip-path:url(#SVGID_31_);fill:url(#SVGID_32_);}
	.st15{clip-path:url(#SVGID_34_);fill:url(#SVGID_35_);}
	.st16{clip-path:url(#SVGID_37_);fill:url(#SVGID_38_);}
	.st17{clip-path:url(#SVGID_40_);fill:url(#SVGID_41_);}
	.st18{clip-path:url(#SVGID_43_);fill:url(#SVGID_44_);}
	.st19{clip-path:url(#SVGID_46_);fill:url(#SVGID_47_);}
	.st20{clip-path:url(#SVGID_49_);fill:url(#SVGID_50_);}
	.st21{clip-path:url(#SVGID_52_);fill:url(#SVGID_53_);}
	.st22{clip-path:url(#SVGID_55_);fill:url(#SVGID_56_);}
	.st23{clip-path:url(#SVGID_58_);fill:url(#SVGID_59_);}
	.st24{clip-path:url(#SVGID_61_);fill:url(#SVGID_62_);}
	.st25{clip-path:url(#SVGID_64_);fill:url(#SVGID_65_);}
	.st26{clip-path:url(#SVGID_67_);fill:url(#SVGID_68_);}
	.st27{clip-path:url(#SVGID_70_);fill:url(#SVGID_71_);}
	.st28{clip-path:url(#SVGID_73_);fill:#D3B16D;}
	.st29{fill:#D32229;}
	.st30{fill:#231F20;}
	.st31{fill:#928042;}
	.st32{fill:#595857;}
	.st33{clip-path:url(#SVGID_75_);fill:none;stroke:#FFFFFF;stroke-width:1.2317;}
	.st34{fill:none;stroke:#0D0802;stroke-width:0.2211;}
	.st35{fill:#122D52;}
	.st36{fill:none;stroke:#FFFFFF;stroke-width:0.6158;}
	.st37{fill-rule:evenodd;clip-rule:evenodd;fill:#FFFFFF;}
	.st38{clip-path:url(#SVGID_77_);fill:none;stroke:#FFFFFF;stroke-width:1.2317;}
	.st39{clip-path:url(#SVGID_79_);fill:none;stroke:#FFFFFF;stroke-width:1.2317;}
	.st40{fill:#DB404C;}
	.st41{fill:#003682;}
	.st42{clip-path:url(#SVGID_85_);}
</style>
<g>
	<path class="st31" d="M152.12,74.27c12.67,3.61,23.7,8.2,32.22,13.08v-31.8H80.67v3.48v8.92v6.96
		C88.96,65.54,119.96,65.11,152.12,74.27"/>
	<path class="st31" d="M143.33,119.1l-19.73,36.35h2.2h4.16h5.02h5.66h6.11h6.35h6.38h6.2h5.81h5.22h2.83h3.41h1.36h0.03v-36.88
		C171.83,120.84,155.44,120.84,143.33,119.1"/>
	<path class="st31" d="M126.68,111.89c4.74-13.69,34.57-15.82,53.14-12.67c-25.91-6.88-49.52-4.36-58.57,4.93
		c-1.6,1.65-2.57,3.79-2.11,6.07c-12.36-1.39-13.5-6.41-12.6-9.27c0.09-0.35,0.18-0.58,0.18-0.58l-0.01-0.01
		c0.13-0.21,0.26-0.42,0.4-0.61c7.45-10.93,43.11-10.89,73.13-4.83c-0.37-0.09-0.73-0.18-1.11-0.27
		c-26.09-8.29-64.62-8.94-74.86,1.87c-1.87,2.11-2.58,4.64-1.09,7.09c-9.94-1.49-9.7-6.54-9.11-8.71c0.21-0.7,0.51-1.38,0.91-2.04
		c7.43-12.37,45.01-13.13,83.94-1.69c0.5,0.15,1.01,0.25,1.48,0.44c-38.75-15.55-80.52-14.08-89.07-1.2
		c-1.01,1.52-1.77,3.45-1.45,5.12c-0.03-0.02-0.06-0.04-0.09-0.06l0,0c-4.09-1.25-5.5-3.59-5.88-5.65
		c-0.29-1.93,0.03-3.76,1.02-5.46c6.66-11.35,40.95-12.38,76.57-2.3c6.91,1.96,13.36,4.19,19.23,6.6
		c-38.12-20.4-91.58-19.87-98.69-6.76c-0.83,1.54-1.42,3.23-1.39,4.93c0,0,0.06-0.23,0-0.31v6.59v11.76v8.22
		c0,6,0.63,11.78,2.91,17.4c2.06,5.08,5.17,9.71,9.08,13.54c3.91,3.84,8.61,6.85,13.74,8.8c2.22,0.85,4.53,1.49,6.87,1.93
		c0.14,0.03,0.27,0.04,0.41,0.06c2.34,0.32,4.69,0.6,7.03,0.61L126.68,111.89z"/>
	<path class="st32" d="M84.04,175.58c0-3.1,0-3.68-0.02-4.33c-0.05-0.7-0.24-0.91-0.91-1.11c-0.17-0.05-0.53-0.07-0.84-0.07
		c-0.22,0-0.36-0.07-0.36-0.22c0-0.14,0.17-0.19,0.48-0.19c1.11,0,2.45,0.05,3.05,0.05c0.65,0,2.16-0.05,3.44-0.05
		c2.64,0,6.2,0,8.51,2.33c1.06,1.06,2,2.77,2,5.19c0,2.57-1.11,4.52-2.31,5.7c-0.96,0.96-3.2,2.4-7.09,2.4
		c-0.77,0-1.68-0.07-2.53-0.12c-0.84-0.07-1.61-0.12-2.14-0.12c-0.24,0-0.7,0.02-1.2,0.02c-0.5,0.03-1.03,0.05-1.47,0.05
		c-0.26,0-0.41-0.07-0.41-0.22c0-0.1,0.07-0.22,0.34-0.22c0.31,0,0.55-0.02,0.75-0.07c0.43-0.1,0.55-0.48,0.62-1.08
		c0.1-0.87,0.1-2.48,0.1-4.35V175.58z M86.88,177.84c0,2.17,0.02,3.73,0.05,4.14c0.02,0.5,0.07,1.23,0.24,1.44
		c0.26,0.38,1.11,0.82,2.77,0.82c1.92,0,3.34-0.34,4.62-1.39c1.37-1.13,1.8-2.96,1.8-5.07c0-2.6-1.04-4.28-1.97-5.1
		c-1.95-1.73-4.26-1.95-5.92-1.95c-0.43,0-1.13,0.05-1.3,0.14c-0.19,0.07-0.27,0.17-0.27,0.41c-0.02,0.7-0.02,2.38-0.02,3.99V177.84
		z"/>
	<path class="st32" d="M105.59,175.58c0-3.1,0-3.68-0.03-4.33c-0.05-0.7-0.24-0.92-0.91-1.11c-0.17-0.05-0.53-0.07-0.84-0.07
		c-0.22,0-0.36-0.07-0.36-0.22c0-0.14,0.17-0.19,0.48-0.19c1.11,0,2.45,0.05,3.05,0.05c0.67,0,5.36,0.02,5.77,0
		c0.38-0.02,0.72-0.1,0.89-0.12c0.12-0.02,0.24-0.1,0.34-0.1c0.12,0,0.14,0.1,0.14,0.19c0,0.14-0.12,0.38-0.17,1.32
		c-0.02,0.22-0.07,1.11-0.12,1.35c-0.02,0.1-0.07,0.34-0.24,0.34c-0.14,0-0.17-0.1-0.17-0.26c0-0.15-0.02-0.51-0.14-0.75
		c-0.17-0.36-0.34-0.65-1.39-0.75c-0.36-0.05-2.89-0.1-3.32-0.1c-0.1,0-0.14,0.07-0.14,0.19v5.05c0,0.12,0.02,0.22,0.14,0.22
		c0.48,0,3.22,0,3.7-0.05c0.5-0.05,0.82-0.1,1.01-0.31c0.17-0.14,0.24-0.26,0.34-0.26c0.1,0,0.17,0.1,0.17,0.22
		c0,0.12-0.05,0.46-0.17,1.49c-0.05,0.41-0.1,1.23-0.1,1.37c0,0.17-0.02,0.46-0.22,0.46c-0.14,0-0.19-0.07-0.19-0.17
		c-0.02-0.22-0.02-0.48-0.07-0.75c-0.12-0.41-0.39-0.72-1.18-0.79c-0.38-0.05-2.79-0.1-3.32-0.1c-0.1,0-0.12,0.1-0.12,0.22v1.63
		c0,0.7-0.02,2.43,0,3.03c0.05,1.4,0.7,1.71,2.86,1.71c0.55,0,1.44-0.02,2-0.27c0.53-0.24,0.77-0.67,0.91-1.51
		c0.05-0.22,0.1-0.31,0.24-0.31c0.17,0,0.19,0.27,0.19,0.48c0,0.46-0.17,1.85-0.29,2.26c-0.14,0.53-0.34,0.53-1.13,0.53
		c-1.59,0-2.86-0.02-3.9-0.07c-1.03-0.03-1.83-0.05-2.45-0.05c-0.24,0-0.7,0.02-1.2,0.02c-0.5,0.03-1.03,0.05-1.47,0.05
		c-0.27,0-0.41-0.07-0.41-0.22c0-0.1,0.07-0.22,0.34-0.22c0.31,0,0.55-0.02,0.75-0.07c0.43-0.1,0.55-0.48,0.62-1.08
		c0.1-0.87,0.1-2.48,0.1-4.35V175.58z"/>
	<path class="st32" d="M120.1,184.86c-0.34-0.14-0.41-0.24-0.41-0.7c0-1.11,0.1-2.38,0.12-2.72c0-0.31,0.1-0.53,0.26-0.53
		c0.19,0,0.22,0.19,0.22,0.34c0,0.26,0.07,0.7,0.19,1.06c0.46,1.51,2.04,2.02,3.37,2.02c1.83,0,2.93-1.15,2.93-2.6
		c0-0.89-0.22-1.78-2.09-2.88l-1.23-0.72c-2.5-1.47-3.32-2.84-3.32-4.64c0-2.5,2.4-4.11,5.34-4.11c1.37,0,2.45,0.19,3.01,0.34
		c0.19,0.05,0.29,0.12,0.29,0.26c0,0.26-0.07,0.84-0.07,2.45c0,0.43-0.1,0.65-0.27,0.65c-0.14,0-0.22-0.12-0.22-0.36
		c0-0.19-0.1-0.82-0.55-1.35c-0.31-0.38-0.98-0.96-2.36-0.96c-1.52,0-2.88,0.79-2.88,2.19c0,0.91,0.33,1.63,2.24,2.69l0.87,0.48
		c2.79,1.54,3.66,3.1,3.66,4.95c0,1.52-0.58,2.74-2.12,3.82c-1.01,0.72-2.41,0.84-3.54,0.84
		C122.31,185.39,121.01,185.27,120.1,184.86"/>
	<path class="st32" d="M135.56,175.58c0-3.1,0-3.68-0.02-4.33c-0.05-0.7-0.26-0.94-0.72-1.08c-0.24-0.07-0.5-0.1-0.77-0.1
		c-0.22,0-0.34-0.05-0.34-0.24c0-0.12,0.17-0.17,0.5-0.17c0.79,0,2.24,0.05,2.84,0.05c0.53,0,1.9-0.05,2.72-0.05
		c0.26,0,0.43,0.05,0.43,0.17c0,0.19-0.12,0.24-0.34,0.24c-0.22,0-0.39,0.02-0.63,0.07c-0.58,0.1-0.75,0.38-0.79,1.11
		c-0.05,0.65-0.05,1.23-0.05,4.33v3.61c0,1.97,0,3.61,0.1,4.47c0.07,0.55,0.22,0.87,0.84,0.96c0.29,0.05,0.77,0.07,1.08,0.07
		c0.24,0,0.34,0.12,0.34,0.22c0,0.14-0.17,0.22-0.41,0.22c-1.4,0-2.84-0.07-3.42-0.07c-0.48,0-1.92,0.07-2.76,0.07
		c-0.27,0-0.41-0.07-0.41-0.22c0-0.1,0.07-0.22,0.34-0.22c0.31,0,0.55-0.02,0.74-0.07c0.43-0.1,0.55-0.38,0.62-0.99
		c0.1-0.84,0.1-2.48,0.1-4.45V175.58z"/>
	<path class="st32" d="M159.83,183.75c0,0.55,0,0.58-0.26,0.72c-1.42,0.7-3.51,0.91-5.17,0.91c-5.19,0-9.79-2.36-9.79-8.01
		c0-3.27,1.76-5.55,3.7-6.68c2.02-1.18,3.92-1.32,5.7-1.32c1.47,0,3.32,0.24,3.75,0.34c0.43,0.07,1.18,0.19,1.68,0.22
		c0.24,0.02,0.29,0.1,0.29,0.24c0,0.24-0.14,0.79-0.14,3.37c0,0.31-0.12,0.46-0.29,0.46c-0.14,0-0.19-0.1-0.22-0.27
		c-0.05-0.46-0.17-1.11-0.72-1.68c-0.62-0.65-2.21-1.56-4.59-1.56c-1.15,0-2.62,0.02-4.09,1.2c-1.18,0.96-1.95,2.48-1.95,4.98
		c0,4.4,2.84,7.6,7.36,7.6c0.55,0,0.99,0,1.49-0.22c0.31-0.14,0.41-0.36,0.41-0.72v-1.88c0-1.01,0-1.78-0.02-2.4
		c-0.02-0.7-0.24-0.91-0.91-1.11c-0.17-0.05-0.53-0.07-0.82-0.07c-0.19,0-0.34-0.1-0.34-0.22c0-0.17,0.17-0.19,0.46-0.19
		c1.11,0,2.62,0.05,3.25,0.05c0.67,0,1.78-0.05,2.48-0.05c0.29,0,0.43,0.02,0.43,0.19c0,0.12-0.12,0.22-0.26,0.22
		c-0.17,0-0.34,0.03-0.58,0.07c-0.58,0.1-0.79,0.38-0.82,1.11c-0.03,0.63-0.03,1.44-0.03,2.45V183.75z"/>
	<path class="st32" d="M168.87,182.34c0.05,1.59,0.31,2.07,0.72,2.21c0.36,0.12,0.77,0.14,1.11,0.14c0.24,0,0.36,0.1,0.36,0.22
		c0,0.17-0.19,0.22-0.48,0.22c-1.37,0-2.36-0.07-2.74-0.07c-0.19,0-1.2,0.07-2.28,0.07c-0.29,0-0.48-0.02-0.48-0.22
		c0-0.12,0.14-0.22,0.33-0.22c0.29,0,0.67-0.02,0.96-0.1c0.55-0.14,0.63-0.7,0.65-2.48l0.19-12.12c0-0.41,0.14-0.7,0.36-0.7
		c0.26,0,0.55,0.31,0.91,0.67c0.27,0.27,3.44,3.51,6.52,6.52c1.44,1.42,4.25,4.3,4.57,4.59h0.1l-0.22-9.09
		c-0.02-1.25-0.21-1.61-0.72-1.8c-0.31-0.12-0.82-0.12-1.11-0.12c-0.26,0-0.33-0.1-0.33-0.22c0-0.17,0.21-0.19,0.53-0.19
		c1.11,0,2.24,0.05,2.69,0.05c0.24,0,1.03-0.05,2.07-0.05c0.29,0,0.48,0.02,0.48,0.19c0,0.12-0.12,0.22-0.36,0.22
		c-0.22,0-0.38,0-0.65,0.07c-0.58,0.17-0.75,0.53-0.77,1.68l-0.24,12.89c0,0.46-0.17,0.65-0.34,0.65c-0.36,0-0.65-0.22-0.87-0.43
		c-1.32-1.23-3.97-3.75-6.18-5.89c-2.31-2.21-4.54-4.69-4.95-5.05h-0.07L168.87,182.34z"/>
	<path class="st32" d="M86.76,204.03c-0.12,0-0.14,0.02-0.19,0.14l-1.13,2.74c-0.22,0.5-0.31,1.01-0.31,1.25
		c0,0.36,0.19,0.58,0.84,0.58h0.31c0.26,0,0.31,0.1,0.31,0.22c0,0.17-0.12,0.22-0.34,0.22c-0.7,0-1.68-0.07-2.36-0.07
		c-0.22,0-1.35,0.07-2.45,0.07c-0.26,0-0.38-0.05-0.38-0.22c0-0.12,0.07-0.22,0.24-0.22c0.19,0,0.43-0.02,0.62-0.02
		c0.96-0.14,1.32-0.77,1.76-1.8l5.53-12.86c0.24-0.58,0.41-0.82,0.63-0.82c0.31,0,0.41,0.19,0.62,0.65c0.5,1.13,4.04,9.5,5.39,12.6
		c0.82,1.85,1.42,2.12,1.8,2.19c0.31,0.05,0.55,0.07,0.79,0.07c0.19,0,0.29,0.07,0.29,0.22c0,0.17-0.12,0.22-0.91,0.22
		c-0.75,0-2.28,0-4.06-0.05c-0.38-0.02-0.62-0.02-0.62-0.17c0-0.12,0.05-0.19,0.26-0.22c0.14-0.02,0.29-0.22,0.19-0.46l-1.63-4.11
		c-0.05-0.12-0.12-0.14-0.22-0.14H86.76z M91.28,202.9c0.1,0,0.12-0.05,0.1-0.12l-1.99-5.19c-0.03-0.07-0.05-0.19-0.1-0.19
		c-0.07,0-0.1,0.12-0.12,0.19l-2.04,5.17c-0.05,0.1,0,0.14,0.07,0.14H91.28z"/>
	<path class="st32" d="M101.62,195.71c-0.26-0.74-0.43-1.23-0.74-1.42c-0.22-0.14-0.63-0.17-0.82-0.17c-0.22,0-0.34-0.07-0.34-0.22
		c0-0.14,0.17-0.19,0.48-0.19c1.08,0,2.26,0.05,2.45,0.05c0.19,0,1.23-0.05,2.45-0.05c0.31,0,0.46,0.05,0.46,0.19
		c0,0.14-0.17,0.22-0.38,0.22c-0.17,0-0.36,0.02-0.53,0.1c-0.19,0.07-0.22,0.19-0.22,0.41c0,0.27,0.19,0.94,0.46,1.88
		c0.36,1.35,2.28,7.53,2.6,8.46h0.07l4.04-10.44c0.22-0.58,0.43-0.75,0.62-0.75c0.24,0,0.43,0.31,0.7,0.96l4.23,10.08h0.07
		c0.41-1.18,2.02-6.56,2.77-8.94c0.14-0.48,0.22-0.89,0.22-1.18c0-0.34-0.19-0.58-1.04-0.58c-0.19,0-0.36-0.1-0.36-0.22
		c0-0.14,0.17-0.19,0.51-0.19c1.1,0,2.07,0.05,2.26,0.05c0.15,0,1.06-0.05,1.76-0.05c0.24,0,0.38,0.05,0.38,0.17
		c0,0.14-0.1,0.24-0.29,0.24c-0.22,0-0.51,0.02-0.75,0.1c-0.51,0.19-0.75,0.96-1.18,2.14c-0.99,2.57-3.15,9.07-4.18,12.12
		c-0.24,0.72-0.36,0.96-0.67,0.96c-0.29,0-0.43-0.24-0.74-0.99l-4.3-10.07h-0.05c-0.36,0.87-3.2,8.1-4.06,9.98
		c-0.39,0.84-0.5,1.08-0.82,1.08c-0.26,0-0.38-0.22-0.58-0.75L101.62,195.71z"/>
	<path class="st32" d="M130.22,204.03c-0.12,0-0.14,0.02-0.19,0.14l-1.13,2.74c-0.22,0.5-0.31,1.01-0.31,1.25
		c0,0.36,0.19,0.58,0.84,0.58h0.31c0.26,0,0.31,0.1,0.31,0.22c0,0.17-0.12,0.22-0.34,0.22c-0.7,0-1.68-0.07-2.36-0.07
		c-0.22,0-1.35,0.07-2.46,0.07c-0.26,0-0.38-0.05-0.38-0.22c0-0.12,0.07-0.22,0.24-0.22c0.19,0,0.43-0.02,0.62-0.02
		c0.96-0.14,1.32-0.77,1.76-1.8l5.53-12.86c0.24-0.58,0.41-0.82,0.62-0.82c0.31,0,0.41,0.19,0.62,0.65c0.5,1.13,4.04,9.5,5.39,12.6
		c0.82,1.85,1.42,2.12,1.8,2.19c0.31,0.05,0.55,0.07,0.79,0.07c0.19,0,0.29,0.07,0.29,0.22c0,0.17-0.12,0.22-0.91,0.22
		c-0.75,0-2.28,0-4.06-0.05c-0.38-0.02-0.62-0.02-0.62-0.17c0-0.12,0.05-0.19,0.26-0.22c0.15-0.02,0.29-0.22,0.19-0.46l-1.64-4.11
		c-0.05-0.12-0.12-0.14-0.22-0.14H130.22z M134.74,202.9c0.1,0,0.12-0.05,0.1-0.12l-1.99-5.19c-0.03-0.07-0.05-0.19-0.1-0.19
		c-0.07,0-0.1,0.12-0.12,0.19l-2.04,5.17c-0.05,0.1,0,0.14,0.07,0.14H134.74z"/>
	<path class="st32" d="M148.12,199.63c0-3.1,0-3.68-0.03-4.33c-0.05-0.7-0.24-0.91-0.91-1.11c-0.17-0.05-0.53-0.07-0.84-0.07
		c-0.22,0-0.36-0.07-0.36-0.22c0-0.14,0.17-0.19,0.48-0.19c1.11,0,2.45,0.05,2.89,0.05c0.72,0,2.64-0.05,3.29-0.05
		c1.35,0,2.88,0.12,4.02,0.87c0.6,0.41,1.49,1.44,1.49,2.81c0,1.51-0.87,2.86-2.93,4.52c1.88,2.31,3.37,4.16,4.64,5.43
		c1.18,1.18,1.92,1.28,2.26,1.35c0.22,0.05,0.34,0.05,0.51,0.05c0.17,0,0.26,0.12,0.26,0.22c0,0.17-0.14,0.22-0.41,0.22h-2.02
		c-1.18,0-1.75-0.12-2.31-0.41c-0.91-0.46-1.71-1.42-2.88-3.01c-0.84-1.11-1.73-2.48-2-2.79c-0.12-0.12-0.24-0.15-0.38-0.15
		l-1.9-0.05c-0.1,0-0.17,0.05-0.17,0.17v0.29c0,1.9,0.02,3.49,0.12,4.35c0.07,0.6,0.17,0.99,0.82,1.08
		c0.31,0.05,0.77,0.07,1.03,0.07c0.17,0,0.26,0.12,0.26,0.22c0,0.14-0.17,0.22-0.43,0.22c-1.23,0-2.98-0.07-3.29-0.07
		c-0.41,0-1.76,0.07-2.6,0.07c-0.26,0-0.41-0.07-0.41-0.22c0-0.1,0.07-0.22,0.34-0.22c0.31,0,0.55-0.02,0.74-0.07
		c0.43-0.1,0.55-0.48,0.63-1.08c0.1-0.87,0.1-2.48,0.1-4.35V199.63z M150.81,201.22c0,0.22,0.05,0.29,0.19,0.36
		c0.46,0.14,1.08,0.19,1.61,0.19c0.84,0,1.13-0.07,1.49-0.34c0.65-0.46,1.37-1.35,1.37-3.03c0-2.89-1.97-3.63-3.22-3.63
		c-0.53,0-1.03,0.02-1.25,0.07c-0.14,0.05-0.19,0.12-0.19,0.29V201.22z"/>
	<path class="st32" d="M168.22,199.63c0-3.1,0-3.68-0.02-4.33c-0.05-0.7-0.24-0.91-0.91-1.11c-0.17-0.05-0.53-0.07-0.84-0.07
		c-0.22,0-0.36-0.07-0.36-0.22s0.17-0.19,0.48-0.19c1.11,0,2.45,0.05,3.05,0.05c0.65,0,2.16-0.05,3.44-0.05c2.64,0,6.2,0,8.51,2.33
		c1.06,1.06,2,2.76,2,5.19c0,2.57-1.11,4.52-2.31,5.7c-0.96,0.96-3.2,2.41-7.09,2.41c-0.77,0-1.68-0.07-2.52-0.12
		c-0.84-0.07-1.61-0.12-2.14-0.12c-0.24,0-0.7,0.02-1.2,0.02c-0.5,0.02-1.03,0.05-1.47,0.05c-0.26,0-0.41-0.07-0.41-0.22
		c0-0.1,0.07-0.22,0.34-0.22c0.31,0,0.55-0.02,0.75-0.07c0.43-0.1,0.55-0.48,0.62-1.08c0.1-0.87,0.1-2.48,0.1-4.35V199.63z
		 M171.06,201.89c0,2.16,0.02,3.73,0.05,4.14c0.02,0.5,0.07,1.22,0.24,1.44c0.27,0.38,1.11,0.82,2.77,0.82
		c1.92,0,3.34-0.34,4.62-1.39c1.37-1.13,1.8-2.96,1.8-5.07c0-2.6-1.03-4.28-1.97-5.1c-1.95-1.73-4.26-1.95-5.92-1.95
		c-0.43,0-1.13,0.05-1.3,0.14c-0.19,0.07-0.26,0.17-0.26,0.41c-0.02,0.7-0.02,2.38-0.02,3.99V201.89z"/>
</g>
</svg>
