<?xml version="1.0" encoding="utf-8"?>
<!-- Generator: Adobe Illustrator 23.0.3, SVG Export Plug-In . SVG Version: 6.00 Build 0)  -->
<svg version="1.1" id="Layer_1" xmlns="http://www.w3.org/2000/svg" xmlns:xlink="http://www.w3.org/1999/xlink" x="0px" y="0px"
	 viewBox="0 0 265 265" style="enable-background:new 0 0 265 265;" xml:space="preserve">
<style type="text/css">
	.st0{fill:#0D0802;}
	.st1{clip-path:url(#SVGID_2_);fill:none;stroke:#FFFFFF;stroke-width:1.4686;}
	.st2{fill:#FFFFFF;}
	.st3{fill:none;stroke:#0D0802;stroke-width:0.2636;}
	.st4{fill:#E84A26;}
	.st5{clip-path:url(#SVGID_4_);fill:url(#SVGID_5_);}
	.st6{clip-path:url(#SVGID_7_);fill:url(#SVGID_8_);}
	.st7{clip-path:url(#SVGID_10_);fill:url(#SVGID_11_);}
	.st8{clip-path:url(#SVGID_13_);fill:url(#SVGID_14_);}
	.st9{clip-path:url(#SVGID_16_);fill:url(#SVGID_17_);}
	.st10{clip-path:url(#SVGID_19_);fill:url(#SVGID_20_);}
	.st11{clip-path:url(#SVGID_22_);fill:url(#SVGID_23_);}
	.st12{clip-path:url(#SVGID_25_);fill:url(#SVGID_26_);}
	.st13{clip-path:url(#SVGID_28_);fill:url(#SVGID_29_);}
	.st14{clip-path:url(#SVGID_31_);fill:url(#SVGID_32_);}
	.st15{clip-path:url(#SVGID_34_);fill:url(#SVGID_35_);}
	.st16{clip-path:url(#SVGID_37_);fill:url(#SVGID_38_);}
	.st17{clip-path:url(#SVGID_40_);fill:url(#SVGID_41_);}
	.st18{clip-path:url(#SVGID_43_);fill:url(#SVGID_44_);}
	.st19{clip-path:url(#SVGID_46_);fill:url(#SVGID_47_);}
	.st20{clip-path:url(#SVGID_49_);fill:url(#SVGID_50_);}
	.st21{clip-path:url(#SVGID_52_);fill:url(#SVGID_53_);}
	.st22{clip-path:url(#SVGID_55_);fill:url(#SVGID_56_);}
	.st23{clip-path:url(#SVGID_58_);fill:url(#SVGID_59_);}
	.st24{clip-path:url(#SVGID_61_);fill:url(#SVGID_62_);}
	.st25{clip-path:url(#SVGID_64_);fill:url(#SVGID_65_);}
	.st26{clip-path:url(#SVGID_67_);fill:url(#SVGID_68_);}
	.st27{clip-path:url(#SVGID_70_);fill:url(#SVGID_71_);}
	.st28{clip-path:url(#SVGID_73_);fill:#D3B16D;}
	.st29{fill:#D32229;}
	.st30{fill:#231F20;}
	.st31{fill:#928042;}
	.st32{fill:#595857;}
	.st33{clip-path:url(#SVGID_75_);fill:none;stroke:#FFFFFF;stroke-width:1.2317;}
	.st34{fill:none;stroke:#0D0802;stroke-width:0.2211;}
	.st35{fill:#122D52;}
	.st36{fill:none;stroke:#FFFFFF;stroke-width:0.6158;}
	.st37{fill-rule:evenodd;clip-rule:evenodd;fill:#FFFFFF;}
	.st38{clip-path:url(#SVGID_77_);fill:none;stroke:#FFFFFF;stroke-width:1.2317;}
	.st39{clip-path:url(#SVGID_79_);fill:none;stroke:#FFFFFF;stroke-width:1.2317;}
	.st40{fill:#DB404C;}
	.st41{fill:#003682;}
	.st42{clip-path:url(#SVGID_85_);}
</style>
<g>
	<g>
		<path class="st40" d="M131.38,193.86h3.4c2.56,0,5.38-1.71,5.38-5.12s-2.82-5.12-5.38-5.12h-3.4V193.86L131.38,193.86z
			 M132.42,184.57h2.02c3.12,0,4.58,2.05,4.58,4.17c0,2.11-1.46,4.16-4.58,4.16h-2.02V184.57L132.42,184.57z"/>
		<polygon class="st40" points="146.17,189.01 151.13,189.01 151.13,188.06 146.17,188.06 146.17,184.57 151.48,184.57 
			151.48,183.62 145.13,183.62 145.13,193.86 151.65,193.86 151.65,192.9 146.17,192.9 146.17,189.01 		"/>
		<path class="st40" d="M162.35,184.6c-0.81-0.93-1.74-1.24-2.89-1.24c-1.66,0-3.31,0.93-3.31,2.91c0,3.75,5.25,2.14,5.25,5.03
			c0,1.2-1.17,1.87-2.2,1.87c-1.07,0-1.89-0.49-2.33-1.24l-0.94,0.68c0.78,1.07,1.98,1.52,3.23,1.52c1.62,0,3.37-1.1,3.37-2.97
			c0-3.69-5.25-2.23-5.25-4.99c0-1.29,1.11-1.85,2.18-1.85c0.87,0,1.53,0.33,1.98,1L162.35,184.6L162.35,184.6z"/>
		<polygon class="st40" points="168.57,183.62 167.53,183.62 167.53,193.86 168.57,193.86 168.57,183.62 		"/>
		<path class="st40" d="M182.58,184.73c-0.91-0.91-2.08-1.37-3.7-1.37c-3.05,0-5.34,2.27-5.34,5.38c0,3.11,2.28,5.38,5.34,5.38
			c1.24,0,2.73-0.36,3.88-1.04v-5.02h-3.49v0.95h2.44v3.43c-0.77,0.43-1.78,0.72-2.83,0.72c-2.63,0-4.21-2.07-4.21-4.43
			c0-2.36,1.58-4.43,4.21-4.43c1.26,0,2.23,0.45,2.92,1.19L182.58,184.73L182.58,184.73z"/>
		<polygon class="st40" points="189.68,183.62 188.38,183.62 188.38,193.86 189.42,193.86 189.42,185.09 189.45,185.09 
			195.55,193.86 196.85,193.86 196.85,183.62 195.81,183.62 195.81,192.29 195.78,192.29 189.68,183.62 		"/>
		<path class="st40" d="M77.18,184.73c-0.91-0.91-2.08-1.37-3.7-1.37c-3.05,0-5.34,2.27-5.34,5.38c0,3.11,2.28,5.38,5.34,5.38
			c1.24,0,2.73-0.36,3.88-1.04v-5.02h-3.49v0.96h2.44v3.43c-0.77,0.43-1.78,0.72-2.83,0.72c-2.63,0-4.21-2.07-4.21-4.43
			c0-2.36,1.58-4.43,4.21-4.43c1.26,0,2.23,0.45,2.92,1.19L77.18,184.73L77.18,184.73z"/>
		<path class="st40" d="M92.96,188.74c0-3.11-2.29-5.38-5.34-5.38c-3.05,0-5.34,2.27-5.34,5.38c0,3.11,2.28,5.38,5.34,5.38
			C90.68,194.12,92.96,191.85,92.96,188.74L92.96,188.74z M91.83,188.74c0,2.36-1.58,4.43-4.21,4.43c-2.63,0-4.21-2.07-4.21-4.43
			c0-2.36,1.58-4.43,4.21-4.43C90.26,184.31,91.83,186.38,91.83,188.74L91.83,188.74z"/>
		<path class="st40" d="M107.92,188.74c0-3.11-2.28-5.38-5.34-5.38c-3.05,0-5.34,2.27-5.34,5.38c0,3.11,2.28,5.38,5.34,5.38
			C105.63,194.12,107.92,191.85,107.92,188.74L107.92,188.74z M106.79,188.74c0,2.36-1.58,4.43-4.21,4.43
			c-2.63,0-4.21-2.07-4.21-4.43c0-2.36,1.58-4.43,4.21-4.43C105.21,184.31,106.79,186.38,106.79,188.74L106.79,188.74z"/>
		<path class="st40" d="M112.75,193.86h3.4c2.56,0,5.38-1.71,5.38-5.12c0-3.41-2.82-5.12-5.38-5.12h-3.4V193.86L112.75,193.86z
			 M113.79,184.57h2.02c3.12,0,4.58,2.05,4.58,4.16c0,2.11-1.46,4.16-4.58,4.16h-2.02V184.57L113.79,184.57z"/>
		<path class="st40" d="M84.12,165.67c-0.81-0.93-1.74-1.24-2.89-1.24c-1.66,0-3.31,0.92-3.31,2.91c0,3.75,5.25,2.14,5.25,5.03
			c0,1.2-1.17,1.87-2.2,1.87c-1.07,0-1.89-0.49-2.33-1.24l-0.94,0.68c0.78,1.07,1.98,1.52,3.22,1.52c1.62,0,3.37-1.1,3.37-2.96
			c0-3.69-5.25-2.23-5.25-4.99c0-1.29,1.11-1.85,2.18-1.85c0.87,0,1.53,0.33,1.98,1L84.12,165.67L84.12,165.67z"/>
		<polygon class="st40" points="90.34,164.68 89.29,164.68 89.29,174.92 90.34,174.92 90.34,164.68 		"/>
		<polygon class="st40" points="97.3,164.68 96,164.68 96,174.92 97.04,174.92 97.04,166.16 97.07,166.16 103.18,174.92 
			104.48,174.92 104.48,164.68 103.44,164.68 103.44,173.36 103.41,173.36 97.3,164.68 		"/>
		<path class="st40" d="M118.49,165.8c-0.91-0.91-2.08-1.37-3.7-1.37c-3.05,0-5.34,2.27-5.34,5.38c0,3.11,2.28,5.38,5.34,5.38
			c1.24,0,2.73-0.36,3.88-1.04v-5.02h-3.49v0.96h2.44v3.43c-0.77,0.43-1.78,0.72-2.83,0.72c-2.63,0-4.21-2.07-4.21-4.43
			c0-2.36,1.58-4.43,4.21-4.43c1.26,0,2.23,0.45,2.92,1.19L118.49,165.8L118.49,165.8z"/>
		<path class="st40" d="M125.24,172.23h5.24l1.13,2.69h1.21l-4.45-10.24h-1.01l-4.45,10.24h1.21L125.24,172.23L125.24,172.23z
			 M127.86,165.9l2.21,5.38h-4.44L127.86,165.9L127.86,165.9z"/>
		<path class="st40" d="M137.1,174.92h1.04v-4.76h1.94c2.08,0,3.37-0.91,3.37-2.75c0-1.84-1.29-2.73-3.37-2.73h-2.98V174.92
			L137.1,174.92z M138.14,165.64h1.68c1.87,0,2.5,0.8,2.5,1.78c0,0.98-0.64,1.79-2.5,1.79h-1.68V165.64L138.14,165.64z"/>
		<path class="st40" d="M158.27,169.8c0-3.11-2.28-5.38-5.34-5.38c-3.05,0-5.34,2.27-5.34,5.38c0,3.11,2.28,5.38,5.34,5.38
			C155.99,175.18,158.27,172.91,158.27,169.8L158.27,169.8z M157.14,169.8c0,2.36-1.58,4.43-4.21,4.43c-2.63,0-4.21-2.07-4.21-4.43
			c0-2.36,1.58-4.43,4.21-4.43C155.57,165.38,157.14,167.45,157.14,169.8L157.14,169.8z"/>
		<path class="st40" d="M164.29,170.17h1.74l2.81,4.76h1.27l-2.95-4.86c1.68-0.14,2.62-1.23,2.62-2.65c0-1.84-1.29-2.73-3.37-2.73
			h-3.15v10.24h1.04V170.17L164.29,170.17z M164.29,165.64h1.85c1.87,0,2.5,0.8,2.5,1.78c0,0.98-0.64,1.79-2.5,1.79h-1.85V165.64
			L164.29,165.64z"/>
		<polygon class="st40" points="175.75,170.08 180.71,170.08 180.71,169.12 175.75,169.12 175.75,165.64 181.06,165.64 
			181.06,164.68 174.71,164.68 174.71,174.92 181.24,174.92 181.24,173.97 175.75,173.97 175.75,170.08 		"/>
		<path class="st40" d="M125.46,126.33h15.13v7.56H117.9V111.2h30.26v-7.56V80.95v-7.56v-7.56v-7.56h-7.56H117.9h-7.56v7.56v22.69
			v7.56h7.56h15.13v-7.56H117.9V65.82h22.69v7.56h-15.13v7.56h15.13v22.69H117.9h-7.56v7.56v22.69v7.56h7.56h22.69h7.56v-7.56v-7.56
			v-7.56h-7.56h-15.13V126.33L125.46,126.33z M102.77,141.46V58.26v-7.56h53.33v7.56v83.21v7.56h-53.33V141.46L102.77,141.46z"/>
	</g>
	<path class="st40" d="M114.53,214.22h-6.9v-1.27l4.33-4.4c0.16-0.16,0.33-0.34,0.49-0.52c0.16-0.18,0.31-0.38,0.45-0.58
		c0.13-0.2,0.24-0.42,0.32-0.64c0.08-0.22,0.12-0.46,0.12-0.71c0-0.3-0.05-0.56-0.16-0.8c-0.11-0.23-0.26-0.43-0.45-0.6
		c-0.19-0.16-0.42-0.29-0.67-0.38c-0.26-0.09-0.53-0.13-0.81-0.13c-0.55,0-1.02,0.15-1.41,0.46c-0.39,0.31-0.64,0.72-0.75,1.24
		l-1.17-0.12c0.15-0.81,0.52-1.44,1.11-1.9c0.59-0.46,1.3-0.69,2.14-0.69c0.44,0,0.86,0.06,1.25,0.18c0.39,0.12,0.74,0.29,1.04,0.53
		c0.3,0.23,0.54,0.53,0.72,0.88c0.18,0.35,0.27,0.77,0.27,1.24c0,0.42-0.06,0.8-0.19,1.15c-0.13,0.35-0.29,0.68-0.5,0.98
		c-0.2,0.31-0.44,0.6-0.7,0.87s-0.53,0.55-0.81,0.81l-3.42,3.39h5.71V214.22z"/>
	<path class="st40" d="M123.15,203.08c0.78,0,1.41,0.18,1.89,0.54c0.48,0.36,0.85,0.81,1.12,1.36c0.26,0.55,0.44,1.16,0.54,1.82
		c0.09,0.66,0.14,1.29,0.14,1.9c0,0.6-0.05,1.24-0.14,1.9c-0.09,0.66-0.27,1.26-0.54,1.82c-0.27,0.55-0.64,1.01-1.12,1.36
		c-0.48,0.36-1.11,0.54-1.89,0.54s-1.41-0.18-1.89-0.54c-0.48-0.36-0.85-0.81-1.12-1.36c-0.27-0.55-0.45-1.16-0.54-1.82
		c-0.09-0.66-0.14-1.29-0.14-1.9c0-0.6,0.05-1.23,0.14-1.9c0.09-0.66,0.27-1.26,0.54-1.82c0.27-0.55,0.64-1.01,1.12-1.36
		C121.74,203.26,122.37,203.08,123.15,203.08z M123.15,204.09c-0.59,0-1.06,0.16-1.4,0.48c-0.34,0.32-0.6,0.71-0.78,1.18
		s-0.28,0.97-0.33,1.5c-0.05,0.53-0.07,1.01-0.07,1.44s0.02,0.91,0.07,1.44c0.05,0.53,0.16,1.03,0.33,1.5
		c0.17,0.47,0.43,0.87,0.78,1.18c0.34,0.32,0.81,0.47,1.4,0.47s1.06-0.16,1.4-0.47c0.34-0.32,0.6-0.71,0.78-1.18
		c0.17-0.47,0.28-0.97,0.33-1.5c0.05-0.53,0.07-1.01,0.07-1.44s-0.02-0.91-0.07-1.44c-0.05-0.53-0.16-1.03-0.33-1.5
		c-0.17-0.47-0.43-0.86-0.78-1.18C124.21,204.25,123.74,204.09,123.15,204.09z"/>
	<path class="st40" d="M136.18,214.12h-1.11v-9.48l-1.95,1.72l-0.69-0.83l2.76-2.27h0.98V214.12z"/>
	<path class="st40" d="M144.53,208.34c-0.24-0.08-0.45-0.2-0.65-0.36c-0.2-0.16-0.37-0.35-0.51-0.56c-0.14-0.21-0.26-0.45-0.34-0.71
		c-0.08-0.26-0.12-0.52-0.12-0.8c0-0.43,0.08-0.82,0.25-1.17c0.16-0.35,0.38-0.65,0.66-0.9c0.28-0.25,0.6-0.43,0.97-0.57
		c0.37-0.13,0.76-0.2,1.17-0.2c0.41,0,0.8,0.07,1.17,0.2c0.37,0.13,0.69,0.32,0.97,0.57c0.28,0.25,0.5,0.54,0.66,0.9
		s0.25,0.74,0.25,1.17c0,0.28-0.04,0.54-0.12,0.8c-0.08,0.26-0.19,0.49-0.34,0.71c-0.14,0.21-0.31,0.4-0.51,0.56
		c-0.2,0.16-0.42,0.28-0.65,0.36v0.03c0.61,0.16,1.1,0.5,1.47,1.01c0.37,0.51,0.55,1.13,0.55,1.84c0,0.47-0.09,0.89-0.28,1.27
		c-0.19,0.38-0.44,0.7-0.75,0.98s-0.68,0.48-1.09,0.62c-0.41,0.14-0.85,0.21-1.31,0.21s-0.9-0.07-1.31-0.21
		c-0.41-0.14-0.78-0.35-1.09-0.62c-0.31-0.27-0.56-0.6-0.75-0.98c-0.19-0.38-0.28-0.8-0.28-1.27c0-0.72,0.18-1.33,0.55-1.84
		c0.37-0.51,0.86-0.85,1.47-1.01V208.34z M148.27,211.07c0-0.32-0.06-0.61-0.17-0.88c-0.11-0.27-0.27-0.51-0.47-0.71
		s-0.44-0.36-0.74-0.47c-0.29-0.11-0.61-0.17-0.96-0.17c-0.36,0-0.68,0.06-0.97,0.17c-0.29,0.11-0.53,0.27-0.73,0.47
		s-0.35,0.43-0.47,0.71c-0.11,0.27-0.17,0.57-0.17,0.88c0,0.32,0.06,0.61,0.17,0.88c0.11,0.27,0.27,0.51,0.47,0.71
		c0.2,0.2,0.44,0.36,0.73,0.47c0.29,0.11,0.61,0.17,0.97,0.17c0.35,0,0.67-0.05,0.96-0.17c0.29-0.11,0.54-0.27,0.74-0.47
		c0.2-0.2,0.35-0.43,0.47-0.71C148.21,211.68,148.27,211.39,148.27,211.07z M147.87,206.01c0-0.28-0.05-0.53-0.14-0.77
		c-0.1-0.23-0.23-0.44-0.41-0.61c-0.17-0.17-0.38-0.3-0.61-0.4c-0.23-0.1-0.49-0.14-0.77-0.14s-0.53,0.05-0.77,0.14
		c-0.24,0.1-0.44,0.23-0.61,0.4s-0.31,0.37-0.41,0.61c-0.1,0.24-0.15,0.49-0.15,0.77c0,0.28,0.05,0.53,0.15,0.77
		c0.1,0.24,0.23,0.44,0.41,0.61c0.17,0.17,0.38,0.3,0.61,0.4c0.23,0.1,0.49,0.15,0.77,0.15s0.53-0.05,0.77-0.15
		c0.24-0.1,0.44-0.23,0.61-0.4c0.17-0.17,0.31-0.37,0.41-0.61C147.82,206.54,147.87,206.28,147.87,206.01z"/>
</g>
</svg>
